<svg width="38" height="42" viewBox="0 0 38 42" fill="none" xmlns="http://www.w3.org/2000/svg">
<g clip-path="url(#clip0_157_2863)">
<path d="M36.5074 18.4667C36.5074 18.1286 36.5074 17.7904 36.4852 17.4523H36.5074C35.9968 8.00679 28.2911 0.5 18.8532 0.5C18.4979 0.5 18.1648 0.5 17.8317 0.522543C8.52711 1.04103 1.13232 8.86343 1.13232 18.4442C1.13232 27.8671 8.28285 35.5993 17.3876 36.3432C17.6096 36.3658 17.8095 36.163 17.8095 35.9375V26.5596C17.8983 26.0863 18.3202 25.748 18.8088 25.748C19.364 25.748 19.8303 26.2216 19.8303 26.7851V39.7472C19.8303 40.1081 20.23 40.3108 20.5187 40.0855L24.0717 37.1999L29.6455 32.6463C33.8206 29.355 36.5074 24.2378 36.5074 18.4667Z" fill="black"/>
<path d="M18.8088 27.3029C25.0146 27.3029 30.0453 22.196 30.0453 15.8961C30.0453 9.59636 25.0146 4.48938 18.8088 4.48938C12.603 4.48938 7.57227 9.59636 7.57227 15.8961C7.57227 22.196 12.603 27.3029 18.8088 27.3029Z" fill="white"/>
<path d="M17.8097 23.111C17.8985 23.1561 18.8756 23.4944 19.8083 23.111C20.208 22.9081 20.6077 22.7054 20.6077 22.1193C20.6077 21.6457 20.1636 21.1724 18.7868 21.1724C17.41 21.1724 16.9658 21.6457 16.9658 22.1193C17.0102 22.7054 17.41 22.9306 17.8097 23.111Z" fill="black"/>
<path d="M25.9815 21.2841C26.3813 20.6528 26.6699 19.9314 26.6699 19.1199C26.6699 17.0459 25.0045 15.3552 22.9615 15.3552C22.5395 15.3552 22.1177 15.4229 21.74 15.5581C21.74 15.5581 20.3189 16.1217 20.0746 17.587C19.8303 19.0523 21.096 19.3453 21.8957 19.5708C22.6951 19.7962 23.4501 20.5176 23.7609 20.9684C24.0719 21.4192 24.3383 21.78 24.9379 21.78C25.5375 21.78 25.8039 21.5771 25.9815 21.2841Z" fill="black"/>
<path d="M11.1091 21.1316C10.7093 20.5005 10.4207 19.7791 10.4207 18.9675C10.4207 16.8936 12.0862 15.2029 14.1292 15.2029C14.5511 15.2029 14.973 15.2705 15.3506 15.4058C15.3506 15.4058 16.7718 15.9693 17.016 17.4346C17.2603 18.8999 15.9945 19.193 15.1951 19.4184C14.3956 19.6438 13.6406 20.3652 13.3297 20.8161C13.0188 21.2669 12.7524 21.6275 12.1528 21.6275C11.5754 21.6726 11.2867 21.4248 11.1091 21.1316Z" fill="black"/>
</g>
<defs>
<clipPath id="clip0_157_2863">
<rect width="37" height="41" fill="white" transform="translate(0.5 0.5)"/>
</clipPath>
</defs>
</svg>
