<svg width="139" height="41" viewBox="0 0 139 41" fill="none" xmlns="http://www.w3.org/2000/svg">
<path d="M20.9732 24.9805V39.3686" stroke="black" stroke-width="1.91842" stroke-linecap="round"/>
<path d="M16.1772 20.1843H1.78909" stroke="black" stroke-width="1.91842" stroke-linecap="round"/>
<path d="M25.7693 24.9805L32.9634 32.1745" stroke="black" stroke-width="1.91842" stroke-linecap="round"/>
<path d="M8.98328 8.19409L16.1774 15.3882" stroke="black" stroke-width="1.91842" stroke-linecap="round"/>
<path d="M16.1774 24.9805L8.98328 32.1745" stroke="black" stroke-width="1.91842" stroke-linecap="round"/>
<path d="M20.9732 1.00024V15.3884V15.3884C20.9732 18.0372 23.1205 20.1844 25.7693 20.1844V20.1844H40.1574" stroke="#9643FF" stroke-width="1.91842" stroke-linecap="round"/>
<path d="M23.3714 17.7864L40.1575 1.00024" stroke="#9643FF" stroke-width="1.91842" stroke-linecap="round"/>
<path fill-rule="evenodd" clip-rule="evenodd" d="M49.5916 20.1839C49.5916 25.5386 52.2847 28.6754 56.6889 28.6754C59.6039 28.6754 61.5366 27.408 62.4555 25.095V28.6754H64.9585V7.44702H62.3287V15.1144C61.4099 12.8331 59.4771 11.6925 56.6889 11.6925C52.2847 11.6925 49.5916 14.8292 49.5916 20.1839ZM62.3287 20.1839C62.3287 24.6514 60.2692 26.6476 57.2592 26.6476C54.2809 26.6476 52.2214 24.6514 52.2214 20.1839C52.2214 15.7164 54.2809 13.7203 57.2592 13.7203C60.2692 13.7203 62.3287 15.7164 62.3287 20.1839ZM68.4152 28.6757H71.1208V20.5591C71.1208 16.4193 72.9788 14.1376 75.8473 14.1376L77.4771 14.2028V11.8558C76.9882 11.758 76.4014 11.6928 75.9451 11.6928C73.4351 11.6928 71.9031 12.8989 70.9904 15.8326V11.6928H68.4152V28.6757ZM131.854 28.6757H129.149V11.6928H131.724V15.8326C132.637 12.8989 134.169 11.6928 136.679 11.6928C137.135 11.6928 137.722 11.758 138.211 11.8558V14.2028L136.581 14.1376C133.712 14.1376 131.854 16.4193 131.854 20.5591V28.6757ZM77.877 20.1843C77.877 25.4439 80.6652 28.6757 85.703 28.6757C90.7726 28.6757 93.5608 25.4439 93.5608 20.1843C93.5608 14.9563 90.7726 11.6928 85.703 11.6928C80.6652 11.6928 77.877 14.9563 77.877 20.1843ZM90.931 20.1843C90.931 24.4617 89.0299 26.6479 85.703 26.6479C82.4078 26.6479 80.5068 24.4617 80.5068 20.1843C80.5068 15.9069 82.4078 13.7206 85.703 13.7206C89.0299 13.7206 90.931 15.9069 90.931 20.1843ZM103.777 28.6757C100.988 28.6757 99.0555 27.5351 98.1367 25.2538V32.9214H95.5069V11.6928H98.01V15.2732C98.9288 12.9602 100.83 11.6928 103.777 11.6928C108.181 11.6928 110.874 14.8296 110.874 20.1843C110.874 25.539 108.181 28.6757 103.777 28.6757ZM103.175 26.6479C106.185 26.6479 108.244 24.6518 108.244 20.1843C108.244 15.7167 106.185 13.7206 103.175 13.7206C100.196 13.7206 98.1367 15.7167 98.1367 20.1843C98.1367 24.6518 100.196 26.6479 103.175 26.6479ZM112.166 23.7329C112.166 26.7747 114.257 28.6757 117.964 28.6757C120.848 28.6757 122.78 27.5351 123.667 25.2538C123.667 26.9964 124.206 27.9787 124.713 28.6757H127.026C126.709 28.1371 126.171 26.3944 126.171 24.1765V16.9841C126.171 13.7523 124.174 11.6928 119.612 11.6928C115.049 11.6928 113.053 13.7523 113.053 16.9841H115.588C115.778 14.6712 117.109 13.5939 119.644 13.5939C122.368 13.5939 123.541 14.893 123.541 16.9841C123.541 18.1881 122.907 18.6634 120.689 18.8535L117.679 19.107C113.687 19.4555 112.166 21.3249 112.166 23.7329ZM123.541 21.2299C123.541 24.2716 121.893 26.838 118.661 26.838C115.936 26.838 114.796 25.4439 114.796 23.5745C114.796 22.0537 115.841 20.9447 118.44 20.7546L120.689 20.5645C122.147 20.4377 123.161 20.1209 123.541 19.6139V21.2299Z" fill="black"/>
</svg>
