<svg width="139" height="42" viewBox="0 0 139 42" fill="none" xmlns="http://www.w3.org/2000/svg">
<path d="M20.9732 25.7963V40.1844" stroke="white" stroke-width="1.91842" stroke-linecap="round"/>
<path d="M16.1772 21.0001H1.78909" stroke="white" stroke-width="1.91842" stroke-linecap="round"/>
<path d="M25.7693 25.7963L32.9634 32.9903" stroke="white" stroke-width="1.91842" stroke-linecap="round"/>
<path d="M8.98326 9.01001L16.1773 16.2041" stroke="white" stroke-width="1.91842" stroke-linecap="round"/>
<path d="M16.1773 25.7963L8.98326 32.9903" stroke="white" stroke-width="1.91842" stroke-linecap="round"/>
<path d="M20.9732 1.81604V16.2042V16.2042C20.9732 18.853 23.1205 21.0002 25.7693 21.0002V21.0002H40.1574" stroke="#9643FF" stroke-width="1.91842" stroke-linecap="round"/>
<path d="M23.3714 18.6022L40.1576 1.81604" stroke="#9643FF" stroke-width="1.91842" stroke-linecap="round"/>
<path fill-rule="evenodd" clip-rule="evenodd" d="M49.5916 20.9997C49.5916 26.3544 52.2848 29.4912 56.6889 29.4912C59.6039 29.4912 61.5366 28.2238 62.4555 25.9108V29.4912H64.9586V8.26282H62.3287V15.9302C61.4099 13.6489 59.4771 12.5083 56.6889 12.5083C52.2848 12.5083 49.5916 15.645 49.5916 20.9997ZM62.3287 20.9997C62.3287 25.4672 60.2692 27.4634 57.2592 27.4634C54.2809 27.4634 52.2214 25.4672 52.2214 20.9997C52.2214 16.5322 54.2809 14.5361 57.2592 14.5361C60.2692 14.5361 62.3287 16.5322 62.3287 20.9997ZM68.4153 29.4915H71.1208V21.3749C71.1208 17.2351 72.9788 14.9534 75.8473 14.9534L77.4772 15.0186V12.6716C76.9882 12.5738 76.4015 12.5086 75.9451 12.5086C73.4352 12.5086 71.9031 13.7147 70.9904 16.6484V12.5086H68.4153V29.4915ZM131.854 29.4915H129.149V12.5086H131.724V16.6484C132.637 13.7147 134.169 12.5086 136.679 12.5086C137.135 12.5086 137.722 12.5738 138.211 12.6716V15.0186L136.581 14.9534C133.712 14.9534 131.854 17.2351 131.854 21.3749V29.4915ZM77.877 21.0001C77.877 26.2597 80.6652 29.4915 85.703 29.4915C90.7726 29.4915 93.5608 26.2597 93.5608 21.0001C93.5608 15.7721 90.7726 12.5086 85.703 12.5086C80.6652 12.5086 77.877 15.7721 77.877 21.0001ZM90.931 21.0001C90.931 25.2775 89.0299 27.4637 85.703 27.4637C82.4079 27.4637 80.5068 25.2775 80.5068 21.0001C80.5068 16.7227 82.4079 14.5364 85.703 14.5364C89.0299 14.5364 90.931 16.7227 90.931 21.0001ZM103.777 29.4915C100.988 29.4915 99.0556 28.3509 98.1367 26.0696V33.7372H95.5069V12.5086H98.01V16.089C98.9288 13.776 100.83 12.5086 103.777 12.5086C108.181 12.5086 110.874 15.6454 110.874 21.0001C110.874 26.3547 108.181 29.4915 103.777 29.4915ZM103.175 27.4637C106.185 27.4637 108.244 25.4676 108.244 21.0001C108.244 16.5325 106.185 14.5364 103.175 14.5364C100.196 14.5364 98.1367 16.5325 98.1367 21.0001C98.1367 25.4676 100.196 27.4637 103.175 27.4637ZM112.166 24.5487C112.166 27.5904 114.257 29.4915 117.964 29.4915C120.848 29.4915 122.78 28.3509 123.667 26.0696C123.667 27.8122 124.206 28.7945 124.713 29.4915H127.026C126.709 28.9529 126.171 27.2102 126.171 24.9923V17.7999C126.171 14.5681 124.174 12.5086 119.612 12.5086C115.049 12.5086 113.053 14.5681 113.053 17.7999H115.588C115.778 15.487 117.109 14.4097 119.644 14.4097C122.368 14.4097 123.541 15.7087 123.541 17.7999C123.541 19.0039 122.907 19.4792 120.689 19.6693L117.679 19.9228C113.687 20.2713 112.166 22.1407 112.166 24.5487ZM123.541 22.0457C123.541 25.0874 121.893 27.6538 118.661 27.6538C115.936 27.6538 114.796 26.2597 114.796 24.3903C114.796 22.8695 115.841 21.7605 118.44 21.5704L120.689 21.3803C122.147 21.2535 123.161 20.9367 123.541 20.4297V22.0457Z" fill="white"/>
</svg>
