<svg width="38" height="28" viewBox="0 0 38 28" fill="none" xmlns="http://www.w3.org/2000/svg">
<path d="M24.1981 0.683472H24.1689C20.6792 0.683472 17.3646 2.0414 14.897 4.46524C13.6413 3.92499 12.2541 3.63296 10.8378 3.63296C5.12865 3.63296 0.5 8.30541 0.5 14C0.5 19.7091 5.14325 24.367 10.867 24.367C12.2541 24.367 13.6413 24.075 14.897 23.5347C17.2916 25.8855 20.577 27.3165 24.1689 27.3165C31.528 27.3165 37.5 21.3445 37.5 13.9854C37.5 6.68466 31.528 0.683472 24.1981 0.683472ZM24.1689 24.3962C18.4597 24.3962 13.8019 19.7237 13.8019 14.0292H10.8378C10.8378 16.6428 11.5825 19.0959 12.8966 21.1547C12.2249 21.3445 11.5387 21.4467 10.8378 21.4467C6.76401 21.4467 3.42028 18.1176 3.42028 14.0292C3.42028 9.95537 6.74941 6.61165 10.8378 6.61165C12.4586 6.61165 13.9771 7.1227 15.2912 8.101C17.1894 9.51733 18.2553 11.6783 18.2553 14.0146H21.2194C21.2194 10.9191 19.8907 8.04259 17.5107 6.0714C19.3796 4.52364 21.7159 3.64756 24.1689 3.64756C29.8781 3.64756 34.5359 8.32002 34.5359 14.0146C34.5505 19.7237 29.9073 24.3962 24.1689 24.3962Z" fill="#2C3357"/>
</svg>
