<svg width="50" height="50" viewBox="0 0 50 50" fill="none" xmlns="http://www.w3.org/2000/svg">
<path d="M38.9065 12.235C38.8774 12.0249 38.6922 11.9086 38.5391 11.8958C38.3863 11.8831 35.1522 11.6449 35.1522 11.6449C35.1522 11.6449 32.9061 9.42907 32.6596 9.18381C32.413 8.9387 31.9312 9.01325 31.7442 9.06795C31.7167 9.07601 31.2535 9.21807 30.4873 9.45368C29.737 7.30824 28.4128 5.33667 26.0833 5.33667C26.019 5.33667 25.9528 5.33927 25.8866 5.34301C25.2241 4.47237 24.4034 4.09412 23.6946 4.09412C18.268 4.09412 15.6755 10.8351 14.8626 14.2607C12.754 14.91 11.2561 15.3716 11.0647 15.4313C9.88773 15.7982 9.8505 15.835 9.69596 16.9371C9.57965 17.7715 6.5 41.4379 6.5 41.4379L30.4973 45.9059L43.4998 43.1107C43.4998 43.1107 38.9352 12.4452 38.9065 12.235ZM29.1609 9.8613L27.1304 10.4858C27.1311 10.3436 27.1318 10.2037 27.1318 10.0507C27.1318 8.71733 26.9456 7.64375 26.6468 6.79268C27.8471 6.94237 28.6465 8.2995 29.1609 9.8613ZM25.1578 7.05708C25.4915 7.888 25.7085 9.08047 25.7085 10.6896C25.7085 10.7719 25.7077 10.8472 25.707 10.9234C24.3865 11.3298 22.9515 11.7711 21.5134 12.2139C22.3209 9.11703 23.8345 7.62129 25.1578 7.05708ZM23.5455 5.54048C23.7797 5.54048 24.0157 5.6195 24.2415 5.77394C22.5024 6.58715 20.6382 8.63529 19.851 12.7254L16.5362 13.7456C17.4582 10.6259 19.6478 5.54048 23.5455 5.54048Z" fill="#95BF46"/>
<path d="M38.5393 11.8954C38.3865 11.8827 35.1525 11.6445 35.1525 11.6445C35.1525 11.6445 32.9064 9.42871 32.6599 9.18345C32.5676 9.0922 32.4432 9.04542 32.3131 9.02527L30.4987 45.9052L43.5 43.1103C43.5 43.1103 38.9355 12.4448 38.9068 12.2346C38.8777 12.0245 38.6924 11.9082 38.5393 11.8954Z" fill="#5E8E3E"/>
<path d="M26.0834 19.0353L24.4801 23.7743C24.4801 23.7743 23.0754 23.0294 21.3535 23.0294C18.8292 23.0294 18.7022 24.6035 18.7022 25.0002C18.7022 27.1646 24.38 27.994 24.38 33.0638C24.38 37.0526 21.8341 39.621 18.4013 39.621C14.282 39.621 12.1754 37.0734 12.1754 37.0734L13.2784 33.4521C13.2784 33.4521 15.4438 35.2995 17.271 35.2995C18.4649 35.2995 18.9506 34.3654 18.9506 33.6829C18.9506 30.8595 14.2924 30.7336 14.2924 26.0942C14.2924 22.1895 17.1128 18.4109 22.806 18.4109C24.9996 18.4109 26.0834 19.0353 26.0834 19.0353Z" fill="white"/>
</svg>
