<svg width="178" height="174" viewBox="0 0 178 174" fill="none" xmlns="http://www.w3.org/2000/svg">
<path fill-rule="evenodd" clip-rule="evenodd" d="M60.367 144.437L29.5634 113.633C24.6406 108.71 21.875 102.033 21.875 95.0714V42.9376C21.875 35.9756 24.6406 29.2987 29.5635 24.3759L60.3765 -6.43664C65.2993 -11.3594 71.976 -14.125 78.9379 -14.125H131.062C138.024 -14.125 144.701 -11.3594 149.624 -6.43655L180.437 24.3763C185.359 29.2992 188.125 35.976 188.125 42.938V95.071C188.125 102.032 185.361 108.707 180.439 113.63L149.645 144.434C144.722 149.358 138.044 152.125 131.081 152.125H78.9286C71.9667 152.125 65.2899 149.359 60.367 144.437Z" stroke="#F5ECFF" stroke-opacity="0.4" stroke-width="13.125" stroke-linecap="round" stroke-linejoin="round"/>
<path d="M100.625 85.4062V121.5" stroke="#F5ECFF" stroke-opacity="0.4" stroke-width="9.625" stroke-linecap="round"/>
<path d="M88.5938 73.375H52.5" stroke="#F5ECFF" stroke-opacity="0.4" stroke-width="9.625" stroke-linecap="round"/>
<path d="M112.656 85.4062L130.703 103.453" stroke="#F5ECFF" stroke-opacity="0.4" stroke-width="9.625" stroke-linecap="round"/>
<path d="M70.5469 43.2969L88.5938 61.3438" stroke="#F5ECFF" stroke-opacity="0.4" stroke-width="9.625" stroke-linecap="round"/>
<path d="M88.5938 85.4062L70.5469 103.453" stroke="#F5ECFF" stroke-opacity="0.4" stroke-width="9.625" stroke-linecap="round"/>
<path d="M100.625 25.25V61.3438V61.3438C100.625 67.9884 106.012 73.375 112.656 73.375V73.375H148.75" stroke="#F5ECFF" stroke-opacity="0.4" stroke-width="9.625" stroke-linecap="round"/>
<path d="M106.641 67.3594L148.75 25.25" stroke="#F5ECFF" stroke-opacity="0.4" stroke-width="9.625" stroke-linecap="round"/>
</svg>
