<svg width="25" height="24" viewBox="0 0 25 24" fill="none" xmlns="http://www.w3.org/2000/svg">
<path fill-rule="evenodd" clip-rule="evenodd" d="M21.564 19.784L18.909 7.784C18.808 7.326 18.402 7 17.933 7H7.06697C6.59797 7 6.19197 7.326 6.09097 7.784L3.43597 19.784C3.29797 20.408 3.77297 21 4.41197 21H20.588C21.227 21 21.702 20.408 21.564 19.784V19.784Z" stroke="#9643FF" stroke-width="1.5" stroke-linecap="round" stroke-linejoin="round"/>
<path d="M15 7V4.5V4.5V4.5C15 3.119 13.881 2 12.5 2H12.499C11.118 2 9.99902 3.119 9.99902 4.5V4.5V4.5V7" stroke="#9643FF" stroke-width="1.5" stroke-linecap="round" stroke-linejoin="round"/>
<path d="M18.66 7.34003L15.64 21" stroke="#9643FF" stroke-width="1.5" stroke-linecap="round" stroke-linejoin="round"/>
</svg>
