<svg width="28" height="36" viewBox="0 0 28 36" fill="none" xmlns="http://www.w3.org/2000/svg">
<path fill-rule="evenodd" clip-rule="evenodd" d="M20.3037 6.1875H7.69671C5.66242 3.43968 8.40313 -0.406023 11.8076 0.692234L13.4312 1.216C13.8008 1.33525 14.1996 1.33525 14.5692 1.216L16.1928 0.692234C19.5973 -0.406022 22.338 3.43968 20.3037 6.1875ZM7.886 8.8125H20.1144C22.4232 10.0908 24.2269 12.2252 25.0528 14.8681L27.2403 21.8681C29.3532 28.6294 24.3019 35.5 17.2182 35.5H10.7822C3.6985 35.5 -1.35271 28.6294 0.760183 21.8681L2.94768 14.8681C3.77359 12.2252 5.57727 10.0908 7.886 8.8125ZM13.9998 18C16.416 18 18.3748 19.9588 18.3748 22.375C18.3748 24.7912 16.416 26.75 13.9998 26.75C11.5835 26.75 9.62476 24.7912 9.62476 22.375C9.62476 19.9588 11.5835 18 13.9998 18Z" fill="#9643FF"/>
</svg>
