<svg width="24" height="25" viewBox="0 0 24 25" fill="none" xmlns="http://www.w3.org/2000/svg">
<path d="M20.64 16.1231L16.5188 12.0019C16.1434 11.6265 15.5357 11.6265 15.1613 12.0019L11.04 16.1231" stroke="white" stroke-width="1.5" stroke-linecap="round" stroke-linejoin="round"/>
<path fill-rule="evenodd" clip-rule="evenodd" d="M17.76 20.9232H6.23999C4.64927 20.9232 3.35999 19.6339 3.35999 18.0432V6.52319C3.35999 4.93247 4.64927 3.64319 6.23999 3.64319H17.76C19.3507 3.64319 20.64 4.93247 20.64 6.52319V18.0432C20.64 19.6339 19.3507 20.9232 17.76 20.9232Z" stroke="white" stroke-width="1.5" stroke-linecap="round" stroke-linejoin="round"/>
<path d="M15.8399 20.9231L9.79865 14.8819C9.42329 14.5065 8.81561 14.5065 8.44121 14.8819L3.78809 19.535" stroke="white" stroke-width="1.5" stroke-linecap="round" stroke-linejoin="round"/>
<path d="M9.37457 9.14866C9.51516 9.28925 9.51516 9.51719 9.37457 9.65778C9.23398 9.79837 9.00605 9.79837 8.86546 9.65778C8.72487 9.51719 8.72487 9.28925 8.86546 9.14866C9.00605 9.00807 9.23398 9.00807 9.37457 9.14866" stroke="#FF9FC7" stroke-width="1.5" stroke-linecap="round" stroke-linejoin="round"/>
</svg>
