<svg width="24" height="25" viewBox="0 0 24 25" fill="none" xmlns="http://www.w3.org/2000/svg">
<path d="M18 22.75C15.79 22.75 14 20.959 14 18.75C14 16.541 15.79 14.75 18 14.75C20.209 14.75 22 16.541 22 18.75C22 20.959 20.209 22.75 18 22.75" stroke="white" stroke-width="1.5" stroke-linecap="round" stroke-linejoin="round"/>
<path d="M11 21.75H5C3.895 21.75 3 20.855 3 19.75V9.25C3 8.422 3.672 7.75 4.5 7.75H17.5C18.328 7.75 19 8.422 19 9.25V11.75" stroke="white" stroke-width="1.5" stroke-linecap="round" stroke-linejoin="round"/>
<path d="M7 7.5V7.5C7 5.429 8.679 3.75 10.75 3.75H11.25C13.321 3.75 15 5.429 15 7.5V7.5" stroke="white" stroke-width="1.5" stroke-linecap="round" stroke-linejoin="round"/>
<path d="M15 7.5V7.75" stroke="white" stroke-width="1.5" stroke-linecap="round" stroke-linejoin="round"/>
<path d="M19.556 17.9722L17.611 19.9172L16.444 18.7502" stroke="white" stroke-width="1.5" stroke-linecap="round" stroke-linejoin="round"/>
</svg>
