<svg width="20" height="20" viewBox="0 0 20 20" fill="none" xmlns="http://www.w3.org/2000/svg">
<g clip-path="url(#clip0_2960_6342)">
<path d="M19.6551 16.5517H0.344843C0.154414 16.5517 0 16.3973 0 16.2069V3.79309C0 3.60266 0.154414 3.44824 0.344843 3.44824H19.6552C19.8456 3.44824 20 3.60266 20 3.79309V16.2069C20 16.3973 19.8455 16.5517 19.6551 16.5517Z" fill="#73AF00"/>
<path d="M9.82105 5.2816L2.55325 9.70546C2.33251 9.83979 2.33251 10.1602 2.55325 10.2946L9.82105 14.7185C9.93117 14.7855 10.0695 14.7855 10.1796 14.7185L17.4475 10.2946C17.6682 10.1603 17.6682 9.83987 17.4475 9.70549L10.1796 5.2816C10.0695 5.21457 9.93117 5.21457 9.82105 5.2816Z" fill="#FFE15A"/>
<path d="M9.9998 12.7586C11.5233 12.7586 12.7584 11.5235 12.7584 9.99998C12.7584 8.47646 11.5233 7.24139 9.9998 7.24139C8.47627 7.24139 7.24121 8.47646 7.24121 9.99998C7.24121 11.5235 8.47627 12.7586 9.9998 12.7586Z" fill="#41479B"/>
<path d="M7.63301 8.58879C7.50285 8.80668 7.40234 9.04348 7.33594 9.29492C8.86519 9.17984 11.1274 9.60766 12.5673 11.0048C12.6612 10.7649 12.7233 10.5094 12.7466 10.2422C11.2598 8.99094 9.20437 8.54598 7.63301 8.58879Z" fill="#F5F5F5"/>
<path d="M10.1148 10.9414L10.1882 11.1616L10.4203 11.1634C10.4504 11.1636 10.4628 11.202 10.4387 11.2198L10.2519 11.3578L10.322 11.5791C10.331 11.6078 10.2984 11.6315 10.274 11.614L10.0851 11.479L9.89624 11.614C9.87178 11.6315 9.83917 11.6078 9.84823 11.5791L9.91827 11.3578L9.73151 11.2198C9.70733 11.202 9.71979 11.1636 9.74983 11.1634L9.98198 11.1616L10.0554 10.9414C10.0649 10.9129 10.1052 10.9129 10.1148 10.9414Z" fill="#F5F5F5"/>
<path d="M11.0162 11.5111L11.0478 11.6059L11.1477 11.6067C11.1607 11.6067 11.1661 11.6233 11.1556 11.631L11.0752 11.6903L11.1054 11.7856C11.1093 11.7979 11.0952 11.8081 11.0847 11.8006L11.0034 11.7425L10.9221 11.8006C10.9116 11.8081 10.8976 11.7979 10.9015 11.7856L10.9316 11.6903L10.8512 11.631C10.8408 11.6233 10.8461 11.6068 10.8591 11.6067L10.959 11.6059L10.9906 11.5111C10.9947 11.4988 11.0121 11.4988 11.0162 11.5111Z" fill="#F5F5F5"/>
<path d="M9.72423 10.523L9.75583 10.6178L9.85576 10.6185C9.86869 10.6186 9.87408 10.6351 9.86365 10.6428L9.78326 10.7022L9.81337 10.7974C9.81728 10.8098 9.80326 10.82 9.79271 10.8124L9.71142 10.7544L9.63013 10.8124C9.61962 10.82 9.60556 10.8098 9.60947 10.7974L9.63958 10.7022L9.55919 10.6428C9.5488 10.6352 9.55415 10.6187 9.56708 10.6185L9.66701 10.6178L9.69861 10.523C9.70275 10.5107 9.72013 10.5107 9.72423 10.523Z" fill="#F5F5F5"/>
<path d="M7.97423 10.4081L8.00583 10.5028L8.10576 10.5036C8.11869 10.5037 8.12408 10.5202 8.11365 10.5279L8.03326 10.5872L8.06337 10.6825C8.06728 10.6949 8.05326 10.7051 8.04271 10.6975L7.96142 10.6394L7.88013 10.6975C7.86962 10.7051 7.85556 10.6949 7.85947 10.6825L7.88958 10.5872L7.80919 10.5279C7.7988 10.5203 7.80415 10.5037 7.81708 10.5036L7.91701 10.5028L7.94861 10.4081C7.95279 10.3958 7.97013 10.3958 7.97423 10.4081Z" fill="#F5F5F5"/>
<path d="M9.4381 11.4783L9.4697 11.5731L9.56962 11.5739C9.58255 11.574 9.58794 11.5905 9.57751 11.5982L9.49712 11.6575L9.52724 11.7528C9.53115 11.7651 9.51712 11.7753 9.50658 11.7678L9.42529 11.7097L9.344 11.7678C9.33349 11.7753 9.31943 11.7651 9.32333 11.7528L9.35345 11.6575L9.27306 11.5982C9.26267 11.5905 9.26802 11.574 9.28095 11.5739L9.38087 11.5731L9.41247 11.4783C9.41665 11.4661 9.43404 11.4661 9.4381 11.4783Z" fill="#F5F5F5"/>
<path d="M8.63256 10.3419L8.65842 10.4194L8.74014 10.4201C8.75069 10.4202 8.7551 10.4337 8.74663 10.44L8.68088 10.4885L8.70553 10.5664C8.70874 10.5765 8.69725 10.5848 8.68862 10.5787L8.62213 10.5312L8.55565 10.5787C8.54702 10.5848 8.53557 10.5765 8.53874 10.5664L8.56338 10.4885L8.49764 10.44C8.48917 10.4337 8.4935 10.4202 8.50413 10.4201L8.58585 10.4194L8.6117 10.3419C8.61502 10.3319 8.62921 10.3319 8.63256 10.3419Z" fill="#F5F5F5"/>
<path d="M11.0865 8.74192L11.1188 8.83887L11.221 8.83965C11.2343 8.83973 11.2397 8.85664 11.2291 8.86449L11.1469 8.9252L11.1777 9.02266C11.1817 9.03528 11.1673 9.0457 11.1566 9.03801L11.0734 8.97856L10.9902 9.03801C10.9795 9.04574 10.9651 9.03524 10.9691 9.02266L10.9999 8.9252L10.9177 8.86449C10.9071 8.85664 10.9126 8.83977 10.9258 8.83965L11.028 8.83887L11.0603 8.74192C11.0645 8.72934 11.0823 8.72934 11.0865 8.74192Z" fill="#F5F5F5"/>
<path d="M8.08667 9.86782L8.11252 9.94532L8.19424 9.94598C8.20479 9.94606 8.2092 9.95958 8.20073 9.96587L8.13499 10.0144L8.15963 10.0923C8.16284 10.1024 8.15135 10.1107 8.14272 10.1045L8.07624 10.057L8.00975 10.1045C8.00112 10.1107 7.98967 10.1024 7.99284 10.0923L8.01749 10.0144L7.95174 9.96587C7.94327 9.95958 7.9476 9.9461 7.95823 9.94598L8.03995 9.94532L8.06581 9.86782C8.06913 9.85778 8.08331 9.85778 8.08667 9.86782Z" fill="#F5F5F5"/>
<path d="M8.48071 10.9602L8.51985 11.0776L8.6436 11.0785C8.65961 11.0786 8.66625 11.0991 8.65336 11.1086L8.55379 11.1821L8.59114 11.3001C8.59598 11.3154 8.5786 11.328 8.56555 11.3187L8.46485 11.2467L8.36415 11.3187C8.35114 11.328 8.33372 11.3154 8.33856 11.3001L8.3759 11.1821L8.27633 11.1086C8.26344 11.0991 8.27008 11.0786 8.2861 11.0785L8.40985 11.0776L8.44899 10.9602C8.45419 10.945 8.47567 10.945 8.48071 10.9602Z" fill="#F5F5F5"/>
<path d="M11.5196 11.5357L11.5442 11.6095L11.622 11.6101C11.6321 11.6102 11.6363 11.6231 11.6282 11.629L11.5656 11.6753L11.5891 11.7495C11.5921 11.7591 11.5812 11.767 11.5729 11.7612L11.5096 11.7159L11.4463 11.7612C11.4381 11.767 11.4271 11.7591 11.4301 11.7495L11.4536 11.6753L11.391 11.629C11.3829 11.6231 11.3871 11.6102 11.3972 11.6101L11.475 11.6095L11.4996 11.5357C11.5029 11.5261 11.5164 11.5261 11.5196 11.5357Z" fill="#F5F5F5"/>
<path d="M11.7926 10.972L11.8242 11.0668L11.9241 11.0675C11.937 11.0676 11.9424 11.0841 11.932 11.0918L11.8516 11.1512L11.8817 11.2465C11.8856 11.2588 11.8716 11.269 11.8611 11.2615L11.7798 11.2034L11.6985 11.2615C11.688 11.269 11.6739 11.2588 11.6778 11.2465L11.7079 11.1512L11.6276 11.0918C11.6172 11.0842 11.6225 11.0677 11.6354 11.0675L11.7354 11.0668L11.767 10.972C11.7711 10.9597 11.7885 10.9597 11.7926 10.972Z" fill="#F5F5F5"/>
</g>
<defs>
<clipPath id="clip0_2960_6342">
<rect width="20" height="20" fill="white"/>
</clipPath>
</defs>
</svg>
