<svg width="24" height="24" viewBox="0 0 24 24" fill="none" xmlns="http://www.w3.org/2000/svg">
<path d="M4.5 9H3" stroke="#FF9FC7" stroke-width="1.5" stroke-linecap="round" stroke-linejoin="round"/>
<path d="M4.5 15H3" stroke="#FF9FC7" stroke-width="1.5" stroke-linecap="round" stroke-linejoin="round"/>
<path d="M4 12H2" stroke="#FF9FC7" stroke-width="1.5" stroke-linecap="round" stroke-linejoin="round"/>
<path d="M5.63599 5.636C8.20997 3.06202 12.081 2.29201 15.4441 3.68504C18.8072 5.07807 20.9999 8.3598 20.9999 12C20.9999 15.6401 18.8072 18.9218 15.4441 20.3149C12.081 21.7079 8.20997 20.9379 5.63599 18.3639" stroke="white" stroke-width="1.5" stroke-linecap="round" stroke-linejoin="round"/>
<path d="M12 7.49999V8.40883" stroke="white" stroke-width="1.5" stroke-linecap="round" stroke-linejoin="round"/>
<path d="M9.75 10.2265C9.88145 9.1099 10.8807 8.30267 12 8.40886" stroke="white" stroke-width="1.5" stroke-linecap="round" stroke-linejoin="round"/>
<path d="M12 16.5V15.5912" stroke="white" stroke-width="1.5" stroke-linecap="round" stroke-linejoin="round"/>
<path d="M14.25 13.7735C14.1186 14.8901 13.1193 15.6974 12 15.5912" stroke="white" stroke-width="1.5" stroke-linecap="round" stroke-linejoin="round"/>
<path d="M14.1927 9.83003C13.8542 8.9254 12.964 8.34845 12 8.40887" stroke="white" stroke-width="1.5" stroke-linecap="round" stroke-linejoin="round"/>
<path d="M9.80731 14.17C10.1458 15.0746 11.036 15.6516 12 15.5911" stroke="white" stroke-width="1.5" stroke-linecap="round" stroke-linejoin="round"/>
<path d="M9.75 10.2265V10.2265C9.75001 10.996 10.2932 11.6586 11.0478 11.8095L12.9522 12.1904C13.7068 12.3413 14.25 13.0039 14.25 13.7734V13.7734" stroke="white" stroke-width="1.5" stroke-linecap="round" stroke-linejoin="round"/>
</svg>
