<svg width="49" height="49" viewBox="0 0 49 49" fill="none" xmlns="http://www.w3.org/2000/svg">
<path fill-rule="evenodd" clip-rule="evenodd" d="M22.4587 6.125H26.542C36.6902 6.125 44.917 14.3518 44.917 24.5C44.917 34.6482 36.6902 42.875 26.542 42.875H12.2503C7.74002 42.875 4.08368 39.2187 4.08368 34.7083V24.5C4.08368 14.3518 12.3104 6.125 22.4587 6.125ZM17.4508 27.5361C16.8724 26.9191 15.9034 26.8878 15.2864 27.4662C14.6694 28.0446 14.6382 29.0137 15.2166 29.6306C17.9748 32.5727 21.1616 34.1979 24.5004 34.1979C27.8391 34.1979 31.0259 32.5727 33.7841 29.6306C34.3625 29.0137 34.3313 28.0446 33.7143 27.4662C33.0973 26.8878 32.1283 26.9191 31.5499 27.5361C29.2039 30.0384 26.7762 31.1354 24.5004 31.1354C22.2245 31.1354 19.7968 30.0384 17.4508 27.5361Z" fill="#FF599F"/>
</svg>
