<svg width="42" height="42" viewBox="0 0 42 42" fill="none" xmlns="http://www.w3.org/2000/svg">
<path fill-rule="evenodd" clip-rule="evenodd" d="M12.0734 36.0873L5.91269 29.9266C4.92812 28.942 4.375 27.6067 4.375 26.2143V15.7875C4.375 14.3951 4.92813 13.0597 5.91271 12.0752L12.0753 5.91267C13.0599 4.92812 14.3952 4.375 15.7876 4.375H26.2124C27.6048 4.375 28.9402 4.92812 29.9247 5.91269L36.0873 12.0753C37.0719 13.0598 37.625 14.3952 37.625 15.7876V26.2142C37.625 27.6063 37.0721 28.9414 36.0879 29.9259L29.929 36.0868C28.9444 37.0717 27.6088 37.625 26.2161 37.625H15.7857C14.3933 37.625 13.058 37.0719 12.0734 36.0873Z" stroke="#FF599F" stroke-width="2.625" stroke-linecap="round" stroke-linejoin="round"/>
<path d="M20.125 24.2812V31.5" stroke="#0C0C0C" stroke-width="1.925" stroke-linecap="round"/>
<path d="M17.7188 21.875H10.5" stroke="#0C0C0C" stroke-width="1.925" stroke-linecap="round"/>
<path d="M22.5312 24.2812L26.1406 27.8906" stroke="#0C0C0C" stroke-width="1.925" stroke-linecap="round"/>
<path d="M14.1094 15.8594L17.7188 19.4688" stroke="#0C0C0C" stroke-width="1.925" stroke-linecap="round"/>
<path d="M17.7188 24.2812L14.1094 27.8906" stroke="#0C0C0C" stroke-width="1.925" stroke-linecap="round"/>
<path d="M20.125 12.25V19.4688V19.4688C20.125 20.7977 21.2023 21.875 22.5312 21.875V21.875H29.75" stroke="#9643FF" stroke-width="1.925" stroke-linecap="round"/>
<path d="M21.3281 20.6719L29.75 12.25" stroke="#9643FF" stroke-width="1.925" stroke-linecap="round"/>
</svg>
