<svg width="24" height="25" viewBox="0 0 24 25" fill="none" xmlns="http://www.w3.org/2000/svg">
<path fill-rule="evenodd" clip-rule="evenodd" d="M19.119 6.75V18.75C19.119 19.855 18.224 20.75 17.119 20.75H6.881C5.776 20.75 4.881 19.855 4.881 18.75V6.75C4.881 5.645 5.776 4.75 6.881 4.75H17.12C18.224 4.75 19.119 5.645 19.119 6.75Z" stroke="white" stroke-width="1.5996" stroke-linecap="round" stroke-linejoin="round"/>
<path d="M19.119 6.75H20.721C21.549 6.75 22.221 7.422 22.221 8.25V17.25C22.221 18.078 21.549 18.75 20.721 18.75H19.119" stroke="white" stroke-width="1.4685" stroke-linecap="round" stroke-linejoin="round"/>
<path d="M4.881 18.75H3.278C2.45 18.75 1.778 18.078 1.778 17.25V8.25C1.778 7.422 2.45 6.75 3.278 6.75H4.88" stroke="white" stroke-width="1.4685" stroke-linecap="round" stroke-linejoin="round"/>
<path fill-rule="evenodd" clip-rule="evenodd" d="M11.404 10.5862L14.175 12.2252C14.574 12.4612 14.574 13.0392 14.175 13.2752L11.404 14.9142C10.997 15.1552 10.484 14.8612 10.484 14.3892V11.1112C10.484 10.6382 10.998 10.3452 11.404 10.5862V10.5862Z" stroke="#FF9FC7" stroke-width="1.5" stroke-linecap="round" stroke-linejoin="round"/>
</svg>
