<svg width="25" height="24" viewBox="0 0 25 24" fill="none" xmlns="http://www.w3.org/2000/svg">
<path fill-rule="evenodd" clip-rule="evenodd" d="M10.4085 3.71849C11.326 2.08733 13.6745 2.08733 14.592 3.71849L21.2884 15.6231C22.1883 17.223 21.0322 19.1998 19.1966 19.1998H5.80388C3.9683 19.1998 2.81219 17.223 3.7121 15.6231L10.4085 3.71849ZM13.7001 15.5999C13.7001 16.2626 13.1629 16.7999 12.5001 16.7999C11.8374 16.7999 11.3001 16.2626 11.3001 15.5999C11.3001 14.9372 11.8374 14.3999 12.5001 14.3999C13.1629 14.3999 13.7001 14.9372 13.7001 15.5999ZM12.5001 5.9999C11.8374 5.9999 11.3001 6.53716 11.3001 7.1999V10.7999C11.3001 11.4626 11.8374 11.9999 12.5001 11.9999C13.1629 11.9999 13.7001 11.4626 13.7001 10.7999V7.1999C13.7001 6.53716 13.1629 5.9999 12.5001 5.9999Z" fill="#FBBF24"/>
</svg>
