<svg width="24" height="25" viewBox="0 0 24 25" fill="none" xmlns="http://www.w3.org/2000/svg">
<path d="M17 13.75L17.5 13.25" stroke="#FF9FC7" stroke-width="1.5" stroke-linecap="round" stroke-linejoin="round"/>
<path fill-rule="evenodd" clip-rule="evenodd" d="M20.8874 19.3498L19.6111 19.8862C19.398 19.9757 19.2285 20.1451 19.1389 20.3581L18.6004 21.638C18.4365 22.0278 18.045 22.2723 17.6228 22.2486C17.2005 22.225 16.8388 21.9383 16.7194 21.5326L15.542 17.5339C15.4386 17.1828 15.5353 16.8033 15.7941 16.5444C16.0529 16.2856 16.4324 16.1888 16.7836 16.2922L20.7821 17.4686C21.1879 17.588 21.4747 17.9497 21.4983 18.3721C21.522 18.7944 21.2773 19.1859 20.8874 19.3498Z" stroke="#FF9FC7" stroke-width="1.5" stroke-linecap="round" stroke-linejoin="round"/>
<path d="M12 21.75H6C4.34315 21.75 3 20.4069 3 18.75V6.75C3 5.09315 4.34315 3.75 6 3.75H18C19.6569 3.75 21 5.09315 21 6.75V12.75" stroke="white" stroke-width="1.5" stroke-linecap="round" stroke-linejoin="round"/>
<path d="M3 9.75H21" stroke="white" stroke-width="1.5" stroke-linecap="round" stroke-linejoin="round"/>
<path d="M11 6.745L10.995 6.75L11 6.755L11.005 6.75L11 6.745" stroke="white" stroke-width="1.5" stroke-linecap="round" stroke-linejoin="round"/>
<path d="M8.5 6.745L8.495 6.75L8.5 6.755L8.505 6.75L8.5 6.745" stroke="white" stroke-width="1.5" stroke-linecap="round" stroke-linejoin="round"/>
<path d="M6 6.745L5.995 6.75L6 6.755L6.005 6.75L6 6.745" stroke="white" stroke-width="1.5" stroke-linecap="round" stroke-linejoin="round"/>
<path d="M11 6.745L10.995 6.75L11 6.755L11.005 6.75L11 6.745" stroke="white" stroke-width="1.5" stroke-linecap="round" stroke-linejoin="round"/>
<path d="M8.5 6.745L8.495 6.75L8.5 6.755L8.505 6.75L8.5 6.745" stroke="white" stroke-width="1.5" stroke-linecap="round" stroke-linejoin="round"/>
<path d="M6 6.745L5.995 6.75L6 6.755L6.005 6.75L6 6.745" stroke="white" stroke-width="1.5" stroke-linecap="round" stroke-linejoin="round"/>
<path d="M12.5 18.25L13 17.75" stroke="#FF9FC7" stroke-width="1.5" stroke-linecap="round" stroke-linejoin="round"/>
<path d="M13.5 14.25L13 13.75" stroke="#FF9FC7" stroke-width="1.5" stroke-linecap="round" stroke-linejoin="round"/>
</svg>
