<svg width="20" height="21" viewBox="0 0 20 21" fill="none" xmlns="http://www.w3.org/2000/svg">
<path d="M20 10.3684C20 4.84561 15.5228 0.368408 10 0.368408C4.4772 0.368408 0 4.84561 0 10.3684C0 15.058 3.2288 18.9932 7.5844 20.074V13.4244H5.5224V10.3684H7.5844V9.05161C7.5844 5.64801 9.1248 4.07041 12.4664 4.07041C13.1 4.07041 14.1932 4.19481 14.6404 4.31881V7.08881C14.4044 7.06401 13.9944 7.05161 13.4852 7.05161C11.8456 7.05161 11.212 7.67281 11.212 9.28761V10.3684H14.4784L13.9172 13.4244H11.212V20.2952C16.1636 19.6972 20.0004 15.4812 20.0004 10.3684H20Z" fill="#0866FF"/>
</svg>
