<svg width="21" height="21" viewBox="0 0 21 21" fill="none" xmlns="http://www.w3.org/2000/svg">
<path d="M10.4999 8.55005V12.4228H15.8817C15.6454 13.6682 14.9362 14.7228 13.8726 15.4319L17.118 17.9501C19.0089 16.2047 20.0998 13.641 20.0998 10.5956C20.0998 9.88653 20.0362 9.20464 19.918 8.55016L10.4999 8.55005Z" fill="#4285F4"/>
<path d="M4.89555 12.2717L4.16358 12.832L1.57263 14.8502C3.21808 18.1138 6.59056 20.3684 10.4996 20.3684C13.1996 20.3684 15.4632 19.4775 17.1177 17.9502L13.8723 15.432C12.9814 16.032 11.845 16.3957 10.4996 16.3957C7.89963 16.3957 5.69061 14.6412 4.89964 12.2775L4.89555 12.2717Z" fill="#34A853"/>
<path d="M1.57265 5.88647C0.890868 7.23187 0.5 8.75008 0.5 10.3682C0.5 11.9864 0.890868 13.5046 1.57265 14.85C1.57265 14.859 4.89998 12.2682 4.89998 12.2682C4.69998 11.6682 4.58177 11.0319 4.58177 10.3681C4.58177 9.7044 4.69998 9.06808 4.89998 8.46808L1.57265 5.88647Z" fill="#FBBC05"/>
<path d="M10.4998 4.35022C11.9726 4.35022 13.2816 4.8593 14.3271 5.84113L17.1907 2.97753C15.4543 1.35938 13.1999 0.368408 10.4998 0.368408C6.59076 0.368408 3.21808 2.61386 1.57263 5.8866L4.89986 8.46842C5.69072 6.10476 7.89984 4.35022 10.4998 4.35022Z" fill="#EA4335"/>
</svg>
