<svg width="42" height="42" viewBox="0 0 42 42" fill="none" xmlns="http://www.w3.org/2000/svg">
<path d="M21.8211 5.28987C24.2076 7.67636 24.2076 11.5456 21.8211 13.9321C19.4346 16.3186 15.5653 16.3186 13.1788 13.9321C10.7924 11.5456 10.7924 7.67636 13.1788 5.28987C15.5653 2.90338 19.4346 2.90338 21.8211 5.28987" stroke="#FF599F" stroke-width="2.625" stroke-linecap="round" stroke-linejoin="round"/>
<path d="M25.1352 22.393C22.862 21.4848 20.195 20.9843 17.5 20.9843C10.416 20.9843 3.5 24.4265 3.5 29.7203V31.4703C3.5 32.4363 4.284 33.2203 5.25 33.2203H21.7228" stroke="#FF599F" stroke-width="2.625" stroke-linecap="round" stroke-linejoin="round"/>
<path d="M29.75 38.5C24.9183 38.5 21 34.5835 21 29.75C21 25.018 25.025 20.9948 29.757 21C34.587 21.0035 38.5 24.92 38.5 29.75C38.5 34.5818 34.5835 38.5 29.75 38.5" stroke="#FF599F" stroke-width="2.625" stroke-linecap="round" stroke-linejoin="round"/>
<path d="M29.75 30.1875V33.6875" stroke="#FF599F" stroke-width="2.625" stroke-linecap="round" stroke-linejoin="round"/>
<path d="M29.7483 25.8615C29.6135 25.8615 29.505 25.97 29.5068 26.1047C29.5068 26.2395 29.6153 26.348 29.75 26.348C29.8848 26.348 29.9933 26.2395 29.9933 26.1047C29.9933 25.97 29.8848 25.8615 29.7483 25.8615" stroke="#FF599F" stroke-width="2.625" stroke-linecap="round" stroke-linejoin="round"/>
</svg>
