<svg width="42" height="42" viewBox="0 0 42 42" fill="none" xmlns="http://www.w3.org/2000/svg">
<path d="M22.7514 36.648C22.1706 36.72 21.586 36.7565 21.0007 36.7565C12.2986 36.7565 5.24414 29.7021 5.24414 21C5.24414 12.2979 12.2986 5.24341 21.0007 5.24341C29.7028 5.24341 36.7573 12.2979 36.7573 21C36.7573 21.5852 36.7207 22.1699 36.6487 22.7507" stroke="#FF599F" stroke-width="2.625" stroke-linecap="round" stroke-linejoin="round"/>
<path d="M35.0068 29.7537L30.63 34.1305L28.0039 31.5044" stroke="#FF599F" stroke-width="2.625" stroke-linecap="round" stroke-linejoin="round"/>
<path d="M22.8299 26.4886C20.8083 28.5076 17.5334 28.5076 15.5118 26.4886V26.4886C13.4928 24.467 13.4928 21.1921 15.5118 19.1705" stroke="#FF599F" stroke-width="2.625" stroke-linecap="round" stroke-linejoin="round"/>
<path d="M19.1709 15.5115C21.1925 13.4924 24.4674 13.4924 26.4889 15.5115V15.5115C28.508 17.533 28.508 20.808 26.4889 22.8295" stroke="#FF599F" stroke-width="2.625" stroke-linecap="round" stroke-linejoin="round"/>
<path d="M19.2495 22.7507L22.751 19.2493" stroke="#FF599F" stroke-width="2.625" stroke-linecap="round" stroke-linejoin="round"/>
</svg>
