<svg width="171" height="49" viewBox="0 0 171 49" fill="none" xmlns="http://www.w3.org/2000/svg">
<path d="M0.710938 20.5C0.710938 16.0817 4.29266 12.5 8.71094 12.5H113.711C118.129 12.5 121.711 16.0817 121.711 20.5V36.5H8.71093C4.29266 36.5 0.710938 32.9183 0.710938 28.5V20.5Z" fill="#9643FF"/>
<path d="M11.6697 28.5V19.7727H14.7805C15.4595 19.7727 16.022 19.8963 16.468 20.1435C16.9141 20.3906 17.2479 20.7287 17.4695 21.1577C17.6911 21.5838 17.8018 22.0639 17.8018 22.598C17.8018 23.1349 17.6896 23.6179 17.4652 24.0469C17.2436 24.473 16.9084 24.8111 16.4595 25.0611C16.0135 25.3082 15.4524 25.4318 14.7763 25.4318H12.6371V24.3153H14.657C15.0859 24.3153 15.4339 24.2415 15.701 24.0938C15.968 23.9432 16.1641 23.7386 16.2891 23.4801C16.4141 23.2216 16.4766 22.9276 16.4766 22.598C16.4766 22.2685 16.4141 21.9759 16.2891 21.7202C16.1641 21.4645 15.9666 21.2642 15.6967 21.1193C15.4297 20.9744 15.0774 20.902 14.6399 20.902H12.9865V28.5H11.6697ZM19.2433 28.5V21.9545H20.4748V22.9943H20.543C20.6623 22.642 20.8725 22.3651 21.1737 22.1634C21.4776 21.9588 21.8214 21.8565 22.2049 21.8565C22.2844 21.8565 22.3782 21.8594 22.4862 21.8651C22.5969 21.8707 22.6836 21.8778 22.7461 21.8864V23.1051C22.695 23.0909 22.604 23.0753 22.4734 23.0582C22.3427 23.0384 22.212 23.0284 22.0813 23.0284C21.7802 23.0284 21.5117 23.0923 21.2759 23.2202C21.043 23.3452 20.8583 23.5199 20.7219 23.7443C20.5856 23.9659 20.5174 24.2187 20.5174 24.5028V28.5H19.2433ZM26.4354 28.6321C25.7905 28.6321 25.2351 28.4943 24.7692 28.2188C24.3061 27.9403 23.9482 27.5497 23.6953 27.0469C23.4453 26.5412 23.3203 25.9489 23.3203 25.2699C23.3203 24.5994 23.4453 24.0085 23.6953 23.4972C23.9482 22.9858 24.3004 22.5866 24.7521 22.2997C25.2067 22.0128 25.7379 21.8693 26.3459 21.8693C26.7152 21.8693 27.0732 21.9304 27.4197 22.0526C27.7663 22.1747 28.0774 22.3665 28.353 22.6278C28.6286 22.8892 28.8459 23.2287 29.005 23.6463C29.1641 24.0611 29.2436 24.5653 29.2436 25.1591V25.6108H24.0405V24.6562H27.995C27.995 24.321 27.9268 24.0241 27.7905 23.7656C27.6541 23.5043 27.4624 23.2983 27.2152 23.1477C26.9709 22.9972 26.6839 22.9219 26.3544 22.9219C25.9964 22.9219 25.6839 23.0099 25.4169 23.1861C25.1527 23.3594 24.9482 23.5866 24.8033 23.8679C24.6612 24.1463 24.5902 24.4489 24.5902 24.7756V25.5213C24.5902 25.9588 24.6669 26.331 24.8203 26.6378C24.9766 26.9446 25.1939 27.179 25.4723 27.3409C25.7507 27.5 26.076 27.5795 26.4482 27.5795C26.6896 27.5795 26.9098 27.5455 27.1087 27.4773C27.3075 27.4062 27.4794 27.3011 27.6243 27.1619C27.7692 27.0227 27.88 26.8509 27.9567 26.6463L29.1626 26.8636C29.0661 27.2187 28.8928 27.5298 28.6428 27.7969C28.3956 28.0611 28.0845 28.267 27.7095 28.4148C27.3374 28.5597 26.9126 28.6321 26.4354 28.6321ZM33.4144 28.6321C32.7809 28.6321 32.2354 28.4886 31.7781 28.2017C31.3235 27.9119 30.9741 27.5128 30.7298 27.0043C30.4854 26.4957 30.3633 25.9134 30.3633 25.2571C30.3633 24.5923 30.4883 24.0057 30.7383 23.4972C30.9883 22.9858 31.3406 22.5866 31.7951 22.2997C32.2496 22.0128 32.7852 21.8693 33.4016 21.8693C33.8988 21.8693 34.342 21.9616 34.7312 22.1463C35.1204 22.3281 35.4343 22.5838 35.6729 22.9134C35.9144 23.2429 36.0579 23.6278 36.1033 24.0682H34.8633C34.7951 23.7614 34.6388 23.4972 34.3945 23.2756C34.1531 23.054 33.8292 22.9432 33.4229 22.9432C33.0678 22.9432 32.7567 23.0369 32.4897 23.2244C32.2255 23.4091 32.0195 23.6733 31.8718 24.017C31.7241 24.358 31.6502 24.7614 31.6502 25.2273C31.6502 25.7045 31.7227 26.1165 31.8675 26.4631C32.0124 26.8097 32.217 27.0781 32.4812 27.2685C32.7482 27.4588 33.0621 27.554 33.4229 27.554C33.6644 27.554 33.8832 27.5099 34.0792 27.4219C34.2781 27.331 34.4442 27.2017 34.5778 27.0341C34.7141 26.8665 34.8093 26.6648 34.8633 26.429H36.1033C36.0579 26.8523 35.9201 27.2301 35.69 27.5625C35.4599 27.8949 35.1516 28.1562 34.7653 28.3466C34.3817 28.5369 33.9315 28.6321 33.4144 28.6321ZM37.4659 28.5V21.9545H38.7401V28.5H37.4659ZM38.1094 20.9446C37.8878 20.9446 37.6974 20.8707 37.5384 20.723C37.3821 20.5724 37.304 20.3935 37.304 20.1861C37.304 19.9759 37.3821 19.7969 37.5384 19.6491C37.6974 19.4986 37.8878 19.4233 38.1094 19.4233C38.331 19.4233 38.5199 19.4986 38.6761 19.6491C38.8352 19.7969 38.9148 19.9759 38.9148 20.1861C38.9148 20.3935 38.8352 20.5724 38.6761 20.723C38.5199 20.8707 38.331 20.9446 38.1094 20.9446ZM45.359 23.5526L44.2042 23.7571C44.1559 23.6094 44.0792 23.4687 43.9741 23.3352C43.8718 23.2017 43.7326 23.0923 43.5565 23.0071C43.3803 22.9219 43.1602 22.8793 42.896 22.8793C42.5352 22.8793 42.234 22.9602 41.9925 23.1222C41.7511 23.2812 41.6303 23.4872 41.6303 23.7401C41.6303 23.9588 41.7113 24.1349 41.8732 24.2685C42.0352 24.402 42.2965 24.5114 42.6573 24.5966L43.6971 24.8352C44.2994 24.9744 44.7482 25.1889 45.0437 25.4787C45.3391 25.7685 45.4869 26.1449 45.4869 26.608C45.4869 27 45.3732 27.3494 45.146 27.6562C44.9215 27.9602 44.6076 28.1989 44.2042 28.3722C43.8036 28.5455 43.3391 28.6321 42.8107 28.6321C42.0778 28.6321 41.4798 28.4759 41.0167 28.1634C40.5536 27.848 40.2695 27.4006 40.1644 26.821L41.396 26.6335C41.4727 26.9545 41.6303 27.1974 41.869 27.3622C42.1076 27.5241 42.4187 27.6051 42.8022 27.6051C43.2198 27.6051 43.5536 27.5185 43.8036 27.3452C44.0536 27.169 44.1786 26.9545 44.1786 26.7017C44.1786 26.4972 44.1019 26.3253 43.9485 26.1861C43.7979 26.0469 43.5664 25.9418 43.2539 25.8707L42.146 25.6278C41.5352 25.4886 41.0835 25.267 40.7908 24.9631C40.5011 24.6591 40.3562 24.2741 40.3562 23.8082C40.3562 23.4219 40.4641 23.0838 40.68 22.794C40.896 22.5043 41.1942 22.2784 41.5749 22.1165C41.9556 21.9517 42.3917 21.8693 42.8832 21.8693C43.5906 21.8693 44.1474 22.0227 44.5536 22.3295C44.9599 22.6335 45.2283 23.0412 45.359 23.5526ZM48.7926 28.6449C48.3778 28.6449 48.0028 28.5682 47.6676 28.4148C47.3324 28.2585 47.0668 28.0327 46.8707 27.7372C46.6776 27.4418 46.581 27.0795 46.581 26.6506C46.581 26.2812 46.652 25.9773 46.794 25.7386C46.9361 25.5 47.1278 25.3111 47.3693 25.1719C47.6108 25.0327 47.8807 24.9276 48.179 24.8565C48.4773 24.7855 48.7813 24.7315 49.0909 24.6946C49.483 24.6491 49.8011 24.6122 50.0455 24.5838C50.2898 24.5526 50.4673 24.5028 50.5781 24.4347C50.6889 24.3665 50.7443 24.2557 50.7443 24.1023V24.0724C50.7443 23.7003 50.6392 23.4119 50.429 23.2074C50.2216 23.0028 49.9119 22.9006 49.5 22.9006C49.071 22.9006 48.733 22.9957 48.4858 23.1861C48.2415 23.3736 48.0724 23.5824 47.9787 23.8125L46.7812 23.5398C46.9233 23.142 47.1307 22.821 47.4034 22.5767C47.679 22.3295 47.9957 22.1506 48.3537 22.0398C48.7116 21.9261 49.0881 21.8693 49.483 21.8693C49.7443 21.8693 50.0213 21.9006 50.3139 21.9631C50.6094 22.0227 50.8849 22.1335 51.1406 22.2955C51.3991 22.4574 51.6108 22.6889 51.7756 22.9901C51.9403 23.2884 52.0227 23.6761 52.0227 24.1534V28.5H50.7784V27.6051H50.7273C50.6449 27.7699 50.5213 27.9318 50.3565 28.0909C50.1918 28.25 49.9801 28.3821 49.7216 28.4872C49.4631 28.5923 49.1534 28.6449 48.7926 28.6449ZM49.0696 27.6222C49.4219 27.6222 49.723 27.5526 49.973 27.4134C50.2259 27.2741 50.4176 27.0923 50.5483 26.8679C50.6818 26.6406 50.7486 26.3977 50.7486 26.1392V25.2955C50.7031 25.3409 50.6151 25.3835 50.4844 25.4233C50.3565 25.4602 50.2102 25.4929 50.0455 25.5213C49.8807 25.5469 49.7202 25.571 49.5639 25.5938C49.4077 25.6136 49.277 25.6307 49.1719 25.6449C48.9247 25.6761 48.6989 25.7287 48.4943 25.8026C48.2926 25.8764 48.1307 25.983 48.0085 26.1222C47.8892 26.2585 47.8295 26.4403 47.8295 26.6676C47.8295 26.983 47.946 27.2216 48.179 27.3835C48.4119 27.5426 48.7088 27.6222 49.0696 27.6222ZM59.3459 28.6278C58.8175 28.6278 58.3459 28.4929 57.9311 28.223C57.5192 27.9503 57.1953 27.5625 56.9595 27.0597C56.7266 26.554 56.6101 25.9474 56.6101 25.2401C56.6101 24.5327 56.728 23.9276 56.9638 23.4247C57.2024 22.9219 57.5291 22.5369 57.9439 22.2699C58.3587 22.0028 58.8288 21.8693 59.3544 21.8693C59.7607 21.8693 60.0874 21.9375 60.3345 22.0739C60.5845 22.2074 60.7777 22.3636 60.9141 22.5426C61.0533 22.7216 61.1612 22.8793 61.2379 23.0156H61.3146V19.7727H62.5888V28.5H61.3445V27.4815H61.2379C61.1612 27.6207 61.0504 27.7798 60.9055 27.9588C60.7635 28.1378 60.5675 28.294 60.3175 28.4276C60.0675 28.5611 59.7436 28.6278 59.3459 28.6278ZM59.6271 27.5412C59.9936 27.5412 60.3033 27.4446 60.5561 27.2514C60.8118 27.0554 61.005 26.7841 61.1357 26.4375C61.2692 26.0909 61.3359 25.6875 61.3359 25.2273C61.3359 24.7727 61.2706 24.375 61.1399 24.0341C61.0092 23.6932 60.8175 23.4276 60.5646 23.2372C60.3118 23.0469 59.9993 22.9517 59.6271 22.9517C59.2436 22.9517 58.924 23.0511 58.6683 23.25C58.4126 23.4489 58.2195 23.7202 58.0888 24.0639C57.9609 24.4077 57.897 24.7955 57.897 25.2273C57.897 25.6648 57.9624 26.0582 58.093 26.4077C58.2237 26.7571 58.4169 27.0341 58.6726 27.2386C58.9311 27.4403 59.2493 27.5412 59.6271 27.5412ZM67.2283 28.6321C66.5835 28.6321 66.0281 28.4943 65.5621 28.2188C65.0991 27.9403 64.7411 27.5497 64.4883 27.0469C64.2383 26.5412 64.1133 25.9489 64.1133 25.2699C64.1133 24.5994 64.2383 24.0085 64.4883 23.4972C64.7411 22.9858 65.0934 22.5866 65.5451 22.2997C65.9996 22.0128 66.5309 21.8693 67.1388 21.8693C67.5082 21.8693 67.8661 21.9304 68.2127 22.0526C68.5593 22.1747 68.8704 22.3665 69.146 22.6278C69.4215 22.8892 69.6388 23.2287 69.7979 23.6463C69.957 24.0611 70.0366 24.5653 70.0366 25.1591V25.6108H64.8335V24.6562H68.788C68.788 24.321 68.7198 24.0241 68.5835 23.7656C68.4471 23.5043 68.2553 23.2983 68.0082 23.1477C67.7638 22.9972 67.4769 22.9219 67.1474 22.9219C66.7894 22.9219 66.4769 23.0099 66.2099 23.1861C65.9457 23.3594 65.7411 23.5866 65.5962 23.8679C65.4542 24.1463 65.3832 24.4489 65.3832 24.7756V25.5213C65.3832 25.9588 65.4599 26.331 65.6133 26.6378C65.7695 26.9446 65.9869 27.179 66.2653 27.3409C66.5437 27.5 66.869 27.5795 67.2411 27.5795C67.4826 27.5795 67.7028 27.5455 67.9016 27.4773C68.1005 27.4062 68.2724 27.3011 68.4173 27.1619C68.5621 27.0227 68.6729 26.8509 68.7496 26.6463L69.9556 26.8636C69.859 27.2187 69.6857 27.5298 69.4357 27.7969C69.1886 28.0611 68.8775 28.267 68.5025 28.4148C68.1303 28.5597 67.7056 28.6321 67.2283 28.6321ZM76.5309 28.6449C76.1161 28.6449 75.7411 28.5682 75.4059 28.4148C75.0707 28.2585 74.805 28.0327 74.609 27.7372C74.4158 27.4418 74.3192 27.0795 74.3192 26.6506C74.3192 26.2812 74.3903 25.9773 74.5323 25.7386C74.6744 25.5 74.8661 25.3111 75.1076 25.1719C75.3491 25.0327 75.619 24.9276 75.9173 24.8565C76.2156 24.7855 76.5195 24.7315 76.8292 24.6946C77.2212 24.6491 77.5394 24.6122 77.7837 24.5838C78.0281 24.5526 78.2056 24.5028 78.3164 24.4347C78.4272 24.3665 78.4826 24.2557 78.4826 24.1023V24.0724C78.4826 23.7003 78.3775 23.4119 78.1673 23.2074C77.9599 23.0028 77.6502 22.9006 77.2383 22.9006C76.8093 22.9006 76.4712 22.9957 76.2241 23.1861C75.9798 23.3736 75.8107 23.5824 75.717 23.8125L74.5195 23.5398C74.6616 23.142 74.869 22.821 75.1417 22.5767C75.4173 22.3295 75.734 22.1506 76.092 22.0398C76.4499 21.9261 76.8263 21.8693 77.2212 21.8693C77.4826 21.8693 77.7596 21.9006 78.0522 21.9631C78.3477 22.0227 78.6232 22.1335 78.8789 22.2955C79.1374 22.4574 79.3491 22.6889 79.5138 22.9901C79.6786 23.2884 79.761 23.6761 79.761 24.1534V28.5H78.5167V27.6051H78.4656C78.3832 27.7699 78.2596 27.9318 78.0948 28.0909C77.93 28.25 77.7184 28.3821 77.4599 28.4872C77.2013 28.5923 76.8917 28.6449 76.5309 28.6449ZM76.8079 27.6222C77.1602 27.6222 77.4613 27.5526 77.7113 27.4134C77.9641 27.2741 78.1559 27.0923 78.2866 26.8679C78.4201 26.6406 78.4869 26.3977 78.4869 26.1392V25.2955C78.4414 25.3409 78.3533 25.3835 78.2227 25.4233C78.0948 25.4602 77.9485 25.4929 77.7837 25.5213C77.619 25.5469 77.4585 25.571 77.3022 25.5938C77.146 25.6136 77.0153 25.6307 76.9102 25.6449C76.663 25.6761 76.4371 25.7287 76.2326 25.8026C76.0309 25.8764 75.869 25.983 75.7468 26.1222C75.6275 26.2585 75.5678 26.4403 75.5678 26.6676C75.5678 26.983 75.6843 27.2216 75.9173 27.3835C76.1502 27.5426 76.4471 27.6222 76.8079 27.6222ZM81.4581 21.9545H82.7322V28.9261C82.7322 29.3636 82.6527 29.733 82.4936 30.0341C82.3374 30.3352 82.1044 30.5639 81.7947 30.7202C81.4879 30.8764 81.1087 30.9545 80.657 30.9545C80.6115 30.9545 80.5689 30.9545 80.5291 30.9545C80.4865 30.9545 80.4425 30.9531 80.397 30.9503V29.8551C80.4368 29.8551 80.4723 29.8551 80.5036 29.8551C80.532 29.8551 80.5646 29.8551 80.6016 29.8551C80.9027 29.8551 81.12 29.7741 81.2536 29.6122C81.3899 29.4531 81.4581 29.2216 81.4581 28.9176V21.9545ZM82.0888 20.9446C81.8672 20.9446 81.6768 20.8707 81.5178 20.723C81.3615 20.5724 81.2834 20.3935 81.2834 20.1861C81.2834 19.9759 81.3615 19.7969 81.5178 19.6491C81.6768 19.4986 81.8672 19.4233 82.0888 19.4233C82.3104 19.4233 82.4993 19.4986 82.6555 19.6491C82.8146 19.7969 82.8942 19.9759 82.8942 20.1861C82.8942 20.3935 82.8146 20.5724 82.6555 20.723C82.4993 20.8707 82.3104 20.9446 82.0888 20.9446ZM88.5927 25.7855V21.9545H89.8711V28.5H88.6183V27.3665H88.5501C88.3995 27.7159 88.158 28.0071 87.8256 28.2401C87.4961 28.4702 87.0856 28.5852 86.5941 28.5852C86.1737 28.5852 85.8015 28.4929 85.4776 28.3082C85.1566 28.1207 84.9038 27.8438 84.7191 27.4773C84.5373 27.1108 84.4464 26.6577 84.4464 26.1179V21.9545H85.7205V25.9645C85.7205 26.4105 85.8441 26.7656 86.0913 27.0298C86.3384 27.294 86.6594 27.4261 87.0543 27.4261C87.293 27.4261 87.5302 27.3665 87.766 27.2472C88.0046 27.1278 88.2021 26.9474 88.3583 26.706C88.5174 26.4645 88.5955 26.1577 88.5927 25.7855ZM94.0334 28.6278C93.505 28.6278 93.0334 28.4929 92.6186 28.223C92.2067 27.9503 91.8828 27.5625 91.647 27.0597C91.4141 26.554 91.2976 25.9474 91.2976 25.2401C91.2976 24.5327 91.4155 23.9276 91.6513 23.4247C91.8899 22.9219 92.2166 22.5369 92.6314 22.2699C93.0462 22.0028 93.5163 21.8693 94.0419 21.8693C94.4482 21.8693 94.7749 21.9375 95.022 22.0739C95.272 22.2074 95.4652 22.3636 95.6016 22.5426C95.7408 22.7216 95.8487 22.8793 95.9254 23.0156H96.0021V19.7727H97.2763V28.5H96.032V27.4815H95.9254C95.8487 27.6207 95.7379 27.7798 95.593 27.9588C95.451 28.1378 95.255 28.294 95.005 28.4276C94.755 28.5611 94.4311 28.6278 94.0334 28.6278ZM94.3146 27.5412C94.6811 27.5412 94.9908 27.4446 95.2436 27.2514C95.4993 27.0554 95.6925 26.7841 95.8232 26.4375C95.9567 26.0909 96.0234 25.6875 96.0234 25.2273C96.0234 24.7727 95.9581 24.375 95.8274 24.0341C95.6967 23.6932 95.505 23.4276 95.2521 23.2372C94.9993 23.0469 94.6868 22.9517 94.3146 22.9517C93.9311 22.9517 93.6115 23.0511 93.3558 23.25C93.1001 23.4489 92.907 23.7202 92.7763 24.0639C92.6484 24.4077 92.5845 24.7955 92.5845 25.2273C92.5845 25.6648 92.6499 26.0582 92.7805 26.4077C92.9112 26.7571 93.1044 27.0341 93.3601 27.2386C93.6186 27.4403 93.9368 27.5412 94.3146 27.5412ZM101 28.6449C100.585 28.6449 100.21 28.5682 99.8746 28.4148C99.5394 28.2585 99.2738 28.0327 99.0778 27.7372C98.8846 27.4418 98.788 27.0795 98.788 26.6506C98.788 26.2812 98.859 25.9773 99.0011 25.7386C99.1431 25.5 99.3349 25.3111 99.5763 25.1719C99.8178 25.0327 100.088 24.9276 100.386 24.8565C100.684 24.7855 100.988 24.7315 101.298 24.6946C101.69 24.6491 102.008 24.6122 102.252 24.5838C102.497 24.5526 102.674 24.5028 102.785 24.4347C102.896 24.3665 102.951 24.2557 102.951 24.1023V24.0724C102.951 23.7003 102.846 23.4119 102.636 23.2074C102.429 23.0028 102.119 22.9006 101.707 22.9006C101.278 22.9006 100.94 22.9957 100.693 23.1861C100.449 23.3736 100.279 23.5824 100.186 23.8125L98.9883 23.5398C99.1303 23.142 99.3377 22.821 99.6104 22.5767C99.886 22.3295 100.203 22.1506 100.561 22.0398C100.919 21.9261 101.295 21.8693 101.69 21.8693C101.951 21.8693 102.228 21.9006 102.521 21.9631C102.816 22.0227 103.092 22.1335 103.348 22.2955C103.606 22.4574 103.818 22.6889 103.983 22.9901C104.147 23.2884 104.23 23.6761 104.23 24.1534V28.5H102.985V27.6051H102.934C102.852 27.7699 102.728 27.9318 102.564 28.0909C102.399 28.25 102.187 28.3821 101.929 28.4872C101.67 28.5923 101.36 28.6449 101 28.6449ZM101.277 27.6222C101.629 27.6222 101.93 27.5526 102.18 27.4134C102.433 27.2741 102.625 27.0923 102.755 26.8679C102.889 26.6406 102.956 26.3977 102.956 26.1392V25.2955C102.91 25.3409 102.822 25.3835 102.691 25.4233C102.564 25.4602 102.417 25.4929 102.252 25.5213C102.088 25.5469 101.927 25.571 101.771 25.5938C101.615 25.6136 101.484 25.6307 101.379 25.6449C101.132 25.6761 100.906 25.7287 100.701 25.8026C100.5 25.8764 100.338 25.983 100.216 26.1222C100.096 26.2585 100.037 26.4403 100.037 26.6676C100.037 26.983 100.153 27.2216 100.386 27.3835C100.619 27.5426 100.916 27.6222 101.277 27.6222ZM107.32 25.9901V25.9091C107.326 25.3807 107.379 24.9602 107.478 24.6477C107.58 24.3352 107.725 24.0824 107.913 23.8892C108.1 23.696 108.326 23.5199 108.59 23.3608C108.761 23.2528 108.914 23.1321 109.05 22.9986C109.187 22.8651 109.295 22.7116 109.374 22.5384C109.454 22.3651 109.494 22.1733 109.494 21.9631C109.494 21.7102 109.434 21.4915 109.315 21.3068C109.195 21.1222 109.036 20.9801 108.837 20.8807C108.641 20.7784 108.423 20.7273 108.181 20.7273C107.962 20.7273 107.754 20.7727 107.555 20.8636C107.356 20.9545 107.191 21.0966 107.06 21.2898C106.93 21.4801 106.854 21.7259 106.835 22.027H105.539C105.559 21.5156 105.688 21.0838 105.927 20.7315C106.165 20.3764 106.481 20.108 106.873 19.9261C107.268 19.7443 107.704 19.6534 108.181 19.6534C108.704 19.6534 109.161 19.7514 109.553 19.9474C109.945 20.1406 110.249 20.4119 110.465 20.7614C110.684 21.108 110.793 21.5128 110.793 21.9759C110.793 22.294 110.744 22.581 110.644 22.8366C110.545 23.0895 110.403 23.3153 110.218 23.5142C110.036 23.7131 109.817 23.8892 109.562 24.0426C109.32 24.1932 109.124 24.3494 108.974 24.5114C108.826 24.6733 108.718 24.8651 108.65 25.0866C108.582 25.3082 108.545 25.5824 108.539 25.9091V25.9901H107.32ZM107.964 28.581C107.731 28.581 107.531 28.4986 107.363 28.3338C107.195 28.1662 107.112 27.9645 107.112 27.7287C107.112 27.4957 107.195 27.2969 107.363 27.1321C107.531 26.9645 107.731 26.8807 107.964 26.8807C108.194 26.8807 108.393 26.9645 108.56 27.1321C108.731 27.2969 108.816 27.4957 108.816 27.7287C108.816 27.8849 108.776 28.0284 108.697 28.1591C108.62 28.2869 108.518 28.3892 108.39 28.4659C108.262 28.5426 108.12 28.581 107.964 28.581Z" fill="white"/>
<path fill-rule="evenodd" clip-rule="evenodd" d="M144.17 6.125H148.253C158.401 6.125 166.628 14.3518 166.628 24.5C166.628 34.6482 158.401 42.875 148.253 42.875H133.961C129.451 42.875 125.795 39.2187 125.795 34.7083V24.5C125.795 14.3518 134.021 6.125 144.17 6.125ZM139.162 27.5361C138.583 26.9191 137.614 26.8878 136.997 27.4662C136.38 28.0446 136.349 29.0137 136.927 29.6306C139.686 32.5727 142.873 34.1979 146.211 34.1979C149.55 34.1979 152.737 32.5727 155.495 29.6306C156.073 29.0137 156.042 28.0446 155.425 27.4662C154.808 26.8878 153.839 26.9191 153.261 27.5361C150.915 30.0384 148.487 31.1354 146.211 31.1354C143.935 31.1354 141.508 30.0384 139.162 27.5361Z" fill="#9643FF"/>
</svg>
