<svg width="164" height="49" viewBox="0 0 164 49" fill="none" xmlns="http://www.w3.org/2000/svg">
<path d="M0 20.5C0 16.0817 3.58172 12.5 8 12.5H107C111.418 12.5 115 16.0817 115 20.5V36.5H8C3.58172 36.5 0 32.9183 0 28.5V20.5Z" fill="#FF599F"/>
<path d="M17.308 22.632C17.308 24.372 16.156 25.296 14.332 25.296H12.016V28.5H10.684V19.956H14.332C16.156 19.956 17.308 20.892 17.308 22.632ZM15.976 22.632C15.976 21.516 15.34 20.964 14.152 20.964H12.016V24.288H14.152C15.34 24.288 15.976 23.748 15.976 22.632ZM19.5361 28.5H18.2641V22.308H19.4761V23.736C19.8001 22.644 20.3521 22.236 21.2521 22.236C21.4201 22.236 21.6601 22.272 21.8161 22.308V23.424L21.2041 23.4C20.1961 23.4 19.5361 24.18 19.5361 25.56V28.5ZM25.2091 28.62C23.2411 28.62 22.1491 27.372 22.1491 25.404C22.1491 23.496 23.1811 22.188 25.1371 22.188C27.0931 22.188 28.1251 23.52 28.1251 25.296C28.1251 25.416 28.1131 25.524 28.1011 25.644H23.4211C23.4571 27.108 24.1531 27.744 25.2091 27.744C26.0851 27.744 26.6371 27.288 26.8291 26.58H27.9931C27.7171 27.84 26.8171 28.62 25.2091 28.62ZM25.1371 23.064C24.1771 23.064 23.5531 23.64 23.4211 24.804H26.8531C26.7211 23.64 26.0971 23.064 25.1371 23.064ZM31.8405 28.62C29.9325 28.62 28.8405 27.372 28.8405 25.404C28.8405 23.436 29.9325 22.188 31.8405 22.188C33.7965 22.188 34.6485 23.436 34.6485 24.588H33.4725C33.3525 23.82 32.8965 23.16 31.8405 23.16C30.7605 23.16 30.1125 23.916 30.1125 25.404C30.1125 26.904 30.7605 27.648 31.8405 27.648C32.7645 27.648 33.3405 27.156 33.4725 26.172H34.6485C34.6485 27.444 33.7245 28.62 31.8405 28.62ZM36.7626 28.5H35.4906V22.308H36.7626V28.5ZM36.1266 21.228C35.6346 21.228 35.3706 20.94 35.3706 20.556C35.3706 20.172 35.6346 19.872 36.1266 19.872C36.6066 19.872 36.8826 20.172 36.8826 20.556C36.8826 20.94 36.6066 21.228 36.1266 21.228ZM40.4113 28.62C38.4673 28.62 37.7233 27.768 37.7233 26.58H38.9473C39.0073 27.288 39.3193 27.768 40.4233 27.768C41.5033 27.768 41.8273 27.3 41.8273 26.772C41.8273 26.28 41.4673 26.028 40.8793 25.944L39.7393 25.776C38.4433 25.596 37.8913 25.14 37.8913 24.108C37.8913 23.04 38.5633 22.188 40.4113 22.188C42.2593 22.188 42.9313 23.04 42.9313 24.132H41.7073C41.6473 23.556 41.4553 23.04 40.3993 23.04C39.4993 23.04 39.1633 23.412 39.1633 24.012C39.1633 24.516 39.4513 24.696 39.9313 24.768L41.0713 24.936C42.3313 25.116 43.0993 25.572 43.0993 26.7C43.0993 27.768 42.3553 28.62 40.4113 28.62ZM46.037 28.62C44.597 28.62 43.817 27.9 43.817 26.748C43.817 25.824 44.381 25.092 45.917 24.96L47.117 24.864C47.849 24.792 48.065 24.624 48.065 24.228C48.065 23.52 47.657 23.1 46.757 23.1C45.917 23.1 45.461 23.46 45.401 24.228H44.153C44.153 22.98 44.921 22.188 46.745 22.188C48.557 22.188 49.337 22.98 49.337 24.228V26.916C49.337 27.756 49.409 28.296 49.529 28.5H48.389C48.197 28.26 48.125 28.008 48.125 27.432C47.789 28.224 47.105 28.62 46.037 28.62ZM46.385 27.744C47.477 27.744 48.065 26.892 48.065 25.872V25.344C47.933 25.512 47.597 25.608 47.117 25.644L46.325 25.716C45.437 25.788 45.089 26.16 45.089 26.664C45.089 27.3 45.473 27.744 46.385 27.744ZM55.9975 28.62C54.3295 28.62 53.2975 27.432 53.2975 25.404C53.2975 23.376 54.3295 22.188 55.9975 22.188C56.9935 22.188 57.6775 22.596 58.0255 23.364V19.956H59.2975V28.5H58.0855V27.36C57.7375 28.152 57.0775 28.62 55.9975 28.62ZM56.2975 27.648C57.3175 27.648 58.0255 26.964 58.0255 25.404C58.0255 23.856 57.3175 23.16 56.2975 23.16C55.2655 23.16 54.5695 23.856 54.5695 25.404C54.5695 26.964 55.2655 27.648 56.2975 27.648ZM63.3184 28.62C61.3504 28.62 60.2584 27.372 60.2584 25.404C60.2584 23.496 61.2904 22.188 63.2464 22.188C65.2024 22.188 66.2344 23.52 66.2344 25.296C66.2344 25.416 66.2224 25.524 66.2104 25.644H61.5304C61.5664 27.108 62.2624 27.744 63.3184 27.744C64.1944 27.744 64.7464 27.288 64.9384 26.58H66.1024C65.8264 27.84 64.9264 28.62 63.3184 28.62ZM63.2464 23.064C62.2864 23.064 61.6624 23.64 61.5304 24.804H64.9624C64.8304 23.64 64.2064 23.064 63.2464 23.064ZM72.1698 28.62C70.7298 28.62 69.9498 27.9 69.9498 26.748C69.9498 25.824 70.5138 25.092 72.0498 24.96L73.2498 24.864C73.9818 24.792 74.1978 24.624 74.1978 24.228C74.1978 23.52 73.7898 23.1 72.8898 23.1C72.0498 23.1 71.5938 23.46 71.5338 24.228H70.2858C70.2858 22.98 71.0538 22.188 72.8778 22.188C74.6898 22.188 75.4698 22.98 75.4698 24.228V26.916C75.4698 27.756 75.5418 28.296 75.6618 28.5H74.5218C74.3298 28.26 74.2578 28.008 74.2578 27.432C73.9218 28.224 73.2378 28.62 72.1698 28.62ZM72.5178 27.744C73.6098 27.744 74.1978 26.892 74.1978 25.872V25.344C74.0658 25.512 73.7298 25.608 73.2498 25.644L72.4578 25.716C71.5698 25.788 71.2218 26.16 71.2218 26.664C71.2218 27.3 71.6058 27.744 72.5178 27.744ZM75.5903 30.852V29.94H76.0103C76.4543 29.94 76.6703 29.676 76.6703 29.16V22.308H77.9423V29.16C77.9423 30.252 77.3663 30.852 76.3583 30.852H75.5903ZM77.3063 21.228C76.8143 21.228 76.5503 20.94 76.5503 20.556C76.5503 20.172 76.8143 19.872 77.3063 19.872C77.7863 19.872 78.0623 20.172 78.0623 20.556C78.0623 20.94 77.7863 21.228 77.3063 21.228ZM81.243 28.62C79.827 28.62 79.143 27.9 79.143 26.4V22.308H80.415V26.172C80.415 27.108 80.751 27.588 81.627 27.588C82.551 27.588 83.151 26.892 83.151 25.764V22.308H84.423V28.5H83.211V27.432C82.863 28.14 82.275 28.62 81.243 28.62ZM88.0834 28.62C86.4154 28.62 85.3834 27.432 85.3834 25.404C85.3834 23.376 86.4154 22.188 88.0834 22.188C89.0794 22.188 89.7634 22.596 90.1114 23.364V19.956H91.3834V28.5H90.1714V27.36C89.8234 28.152 89.1634 28.62 88.0834 28.62ZM88.3834 27.648C89.4034 27.648 90.1114 26.964 90.1114 25.404C90.1114 23.856 89.4034 23.16 88.3834 23.16C87.3514 23.16 86.6554 23.856 86.6554 25.404C86.6554 26.964 87.3514 27.648 88.3834 27.648ZM94.5644 28.62C93.1244 28.62 92.3444 27.9 92.3444 26.748C92.3444 25.824 92.9084 25.092 94.4444 24.96L95.6444 24.864C96.3764 24.792 96.5924 24.624 96.5924 24.228C96.5924 23.52 96.1844 23.1 95.2844 23.1C94.4444 23.1 93.9884 23.46 93.9284 24.228H92.6804C92.6804 22.98 93.4484 22.188 95.2724 22.188C97.0844 22.188 97.8644 22.98 97.8644 24.228V26.916C97.8644 27.756 97.9364 28.296 98.0564 28.5H96.9164C96.7244 28.26 96.6524 28.008 96.6524 27.432C96.3164 28.224 95.6324 28.62 94.5644 28.62ZM94.9124 27.744C96.0044 27.744 96.5924 26.892 96.5924 25.872V25.344C96.4604 25.512 96.1244 25.608 95.6444 25.644L94.8524 25.716C93.9644 25.788 93.6164 26.16 93.6164 26.664C93.6164 27.3 94.0004 27.744 94.9124 27.744ZM101.549 28.584C101.045 28.584 100.757 28.272 100.757 27.876C100.757 27.48 101.045 27.168 101.549 27.168C102.053 27.168 102.329 27.48 102.329 27.876C102.329 28.272 102.053 28.584 101.549 28.584ZM102.077 26.028H101.009V25.644C101.009 23.46 103.181 23.7 103.181 22.236C103.181 21.396 102.533 20.868 101.669 20.868C100.673 20.868 100.157 21.468 100.049 22.548H98.8248C98.8248 20.844 99.8448 19.836 101.669 19.836C103.445 19.836 104.513 20.844 104.513 22.236C104.513 24.156 102.077 24.084 102.077 25.644V26.028Z" fill="#090909"/>
<path fill-rule="evenodd" clip-rule="evenodd" d="M137.459 6.125H141.542C151.69 6.125 159.917 14.3518 159.917 24.5C159.917 34.6482 151.69 42.875 141.542 42.875H127.25C122.74 42.875 119.084 39.2187 119.084 34.7083V24.5C119.084 14.3518 127.31 6.125 137.459 6.125ZM132.451 27.5361C131.872 26.9191 130.903 26.8878 130.286 27.4662C129.669 28.0446 129.638 29.0137 130.217 29.6306C132.975 32.5727 136.162 34.1979 139.5 34.1979C142.839 34.1979 146.026 32.5727 148.784 29.6306C149.363 29.0137 149.331 28.0446 148.714 27.4662C148.097 26.8878 147.128 26.9191 146.55 27.5361C144.204 30.0384 141.776 31.1354 139.5 31.1354C137.224 31.1354 134.797 30.0384 132.451 27.5361Z" fill="#FF599F"/>
</svg>
