<svg width="24" height="24" viewBox="0 0 24 24" fill="none" xmlns="http://www.w3.org/2000/svg">
<path d="M13.2514 15.2194L12.3941 16.0768C11.159 17.3103 9.15823 17.3103 7.92319 16.0768V16.0768C6.68967 14.8417 6.68967 12.8409 7.92319 11.6059L8.78055 10.7485" stroke="#9643FF" stroke-width="1.5" stroke-linecap="round" stroke-linejoin="round"/>
<path fill-rule="evenodd" clip-rule="evenodd" d="M16.0015 21.0037H7.99818C5.2356 21.0037 2.99609 18.7642 2.99609 16.0016V7.9983C2.99609 5.23572 5.2356 2.99622 7.99818 2.99622H16.0015C18.7641 2.99622 21.0036 5.23572 21.0036 7.9983V16.0016C21.0036 18.7642 18.7641 21.0037 16.0015 21.0037Z" stroke="#9643FF" stroke-width="1.5" stroke-linecap="round" stroke-linejoin="round"/>
<path d="M10.1719 13.8278L13.8274 10.1722" stroke="#9643FF" stroke-width="1.5" stroke-linecap="round" stroke-linejoin="round"/>
<path d="M10.749 8.78067L11.6064 7.92331C12.8414 6.68979 14.8422 6.68979 16.0772 7.92331V7.92331C17.3108 9.15835 17.3108 11.1591 16.0772 12.3942L15.2199 13.2515" stroke="#9643FF" stroke-width="1.5" stroke-linecap="round" stroke-linejoin="round"/>
</svg>
