<svg width="32" height="33" viewBox="0 0 32 33" fill="none" xmlns="http://www.w3.org/2000/svg">
<rect y="0.875" width="32" height="32" rx="16" fill="#5C299C"/>
<path fill-rule="evenodd" clip-rule="evenodd" d="M10.96 13.2752C10.96 12.8775 11.2824 12.5552 11.68 12.5552H20.32C20.7177 12.5552 21.04 12.8775 21.04 13.2752C21.04 13.6728 20.7177 13.9952 20.32 13.9952H11.68C11.2824 13.9952 10.96 13.6728 10.96 13.2752Z" fill="white"/>
<path fill-rule="evenodd" clip-rule="evenodd" d="M10.96 16.8752C10.96 16.4775 11.2824 16.1552 11.68 16.1552H20.32C20.7177 16.1552 21.04 16.4775 21.04 16.8752C21.04 17.2728 20.7177 17.5952 20.32 17.5952H11.68C11.2824 17.5952 10.96 17.2728 10.96 16.8752Z" fill="white"/>
<path fill-rule="evenodd" clip-rule="evenodd" d="M10.96 20.4752C10.96 20.0775 11.2824 19.7552 11.68 19.7552H20.32C20.7177 19.7552 21.04 20.0775 21.04 20.4752C21.04 20.8728 20.7177 21.1952 20.32 21.1952H11.68C11.2824 21.1952 10.96 20.8728 10.96 20.4752Z" fill="white"/>
</svg>
