<svg width="25" height="25" viewBox="0 0 25 25" fill="none" xmlns="http://www.w3.org/2000/svg">
<path fill-rule="evenodd" clip-rule="evenodd" d="M7.5 2.36841C4.73858 2.36841 2.5 4.60698 2.5 7.36841V17.3684C2.5 20.1298 4.73858 22.3684 7.5 22.3684H17.5C20.2614 22.3684 22.5 20.1298 22.5 17.3684V7.36841C22.5 4.60698 20.2614 2.36841 17.5 2.36841H7.5ZM18.5 7.36841C19.0523 7.36841 19.5 6.92069 19.5 6.36841C19.5 5.81612 19.0523 5.36841 18.5 5.36841C17.9477 5.36841 17.5 5.81612 17.5 6.36841C17.5 6.92069 17.9477 7.36841 18.5 7.36841ZM17.5 12.3684C17.5 15.1298 15.2614 17.3684 12.5 17.3684C9.73858 17.3684 7.5 15.1298 7.5 12.3684C7.5 9.60698 9.73858 7.36841 12.5 7.36841C15.2614 7.36841 17.5 9.60698 17.5 12.3684ZM12.5 15.3684C14.1569 15.3684 15.5 14.0253 15.5 12.3684C15.5 10.7116 14.1569 9.36841 12.5 9.36841C10.8431 9.36841 9.5 10.7116 9.5 12.3684C9.5 14.0253 10.8431 15.3684 12.5 15.3684Z" fill="#9643FF"/>
</svg>
