<svg width="17" height="20" viewBox="0 0 17 20" fill="none" xmlns="http://www.w3.org/2000/svg">
<path fill-rule="evenodd" clip-rule="evenodd" d="M12.1023 3.24988H4.89826C3.73581 1.6797 5.30193 -0.517849 7.24734 0.109726L8.17511 0.409019C8.38634 0.477161 8.61419 0.477161 8.82543 0.409019L9.7532 0.109726C11.6986 -0.517849 13.2647 1.6797 12.1023 3.24988ZM5.00643 4.74988H11.9941C13.3134 5.48035 14.3441 6.7 14.816 8.21023L16.066 12.2102C17.2734 16.0738 14.387 19.9999 10.3391 19.9999H6.66141C2.61357 19.9999 -0.27284 16.0738 0.93453 12.2102L2.18453 8.21023C2.65648 6.7 3.68715 5.48035 5.00643 4.74988ZM8.49951 9.99985C9.88022 9.99985 10.9995 11.1191 10.9995 12.4998C10.9995 13.8806 9.88022 14.9998 8.49951 14.9998C7.1188 14.9998 5.99951 13.8806 5.99951 12.4998C5.99951 11.1191 7.1188 9.99985 8.49951 9.99985Z" fill="#9643FF"/>
</svg>
