<svg width="25" height="25" viewBox="0 0 25 25" fill="none" xmlns="http://www.w3.org/2000/svg">
<path d="M15.5 4.5H20.5" stroke="#9643FF" stroke-width="1.5" stroke-linecap="round" stroke-linejoin="round"/>
<path d="M17.5 2.5L15.5 4.5L17.5 6.5" stroke="#9643FF" stroke-width="1.5" stroke-linecap="round" stroke-linejoin="round"/>
<circle cx="17" cy="15.5" r="1.625" stroke="#9643FF" stroke-width="1.5" stroke-linecap="round" stroke-linejoin="round"/>
<path fill-rule="evenodd" clip-rule="evenodd" d="M14.5 21.5H19.5C20.6046 21.5 21.5 20.6046 21.5 19.5V11.5C21.5 10.3954 20.6046 9.5 19.5 9.5H14.5C13.3954 9.5 12.5 10.3954 12.5 11.5V19.5C12.5 20.6046 13.3954 21.5 14.5 21.5Z" stroke="#9643FF" stroke-width="1.5" stroke-linecap="round" stroke-linejoin="round"/>
<path d="M9.5 20.5H4.5" stroke="#9643FF" stroke-width="1.5" stroke-linecap="round" stroke-linejoin="round"/>
<path d="M7.5 22.5L9.5 20.5L7.5 18.5" stroke="#9643FF" stroke-width="1.5" stroke-linecap="round" stroke-linejoin="round"/>
<path d="M12.5 6.5V5.5C12.5 4.39543 11.6046 3.5 10.5 3.5H5.5C4.39543 3.5 3.5 4.39543 3.5 5.5V13.5C3.5 14.6046 4.39543 15.5 5.5 15.5H9.5" stroke="#9643FF" stroke-width="1.5" stroke-linecap="round" stroke-linejoin="round"/>
<circle cx="8" cy="9.5" r="1.625" stroke="#9643FF" stroke-width="1.5" stroke-linecap="round" stroke-linejoin="round"/>
</svg>
