<svg width="24" height="24" viewBox="0 0 24 24" fill="none" xmlns="http://www.w3.org/2000/svg">
<path d="M8.99872 8.01602H15.0012" stroke="#FF9FC7" stroke-width="1.5" stroke-linecap="round" stroke-linejoin="round"/>
<path d="M8.99872 12H12" stroke="#FF9FC7" stroke-width="1.5" stroke-linecap="round" stroke-linejoin="round"/>
<path d="M4.49689 3.99664H16.0017C17.1067 3.99664 18.0025 4.89245 18.0025 5.99748V16.0016" stroke="white" stroke-width="1.5" stroke-linecap="round" stroke-linejoin="round"/>
<path d="M7.49809 20.0033H19.0029C20.1079 20.0033 21.0037 19.1075 21.0037 18.0025V17.0021C21.0037 16.4495 20.5558 16.0016 20.0033 16.0016H9.99913C9.44662 16.0016 8.99872 16.4495 8.99872 17.0021V18.5027C8.99872 19.3315 8.32686 20.0033 7.49809 20.0033V20.0033C6.66932 20.0033 5.99747 19.3315 5.99747 18.5027V5.49727C5.99747 4.6685 5.32561 3.99664 4.49684 3.99664V3.99664C3.66807 3.99664 2.99622 4.6685 2.99622 5.49727V7.99831C2.99622 8.55082 3.44412 8.99873 3.99663 8.99873H5.99747" stroke="white" stroke-width="1.5" stroke-linecap="round" stroke-linejoin="round"/>
</svg>
