<svg width="25" height="24" viewBox="0 0 25 24" fill="none" xmlns="http://www.w3.org/2000/svg">
<path d="M21.14 15.3735L17.0187 11.2522C16.6433 10.8769 16.0357 10.8769 15.6613 11.2522L11.54 15.3735" stroke="#9643FF" stroke-width="1.5" stroke-linecap="round" stroke-linejoin="round"/>
<path fill-rule="evenodd" clip-rule="evenodd" d="M18.26 20.1736H6.73999C5.14927 20.1736 3.85999 18.8843 3.85999 17.2936V5.77355C3.85999 4.18283 5.14927 2.89355 6.73999 2.89355H18.26C19.8507 2.89355 21.14 4.18283 21.14 5.77355V17.2936C21.14 18.8843 19.8507 20.1736 18.26 20.1736Z" stroke="#9643FF" stroke-width="1.5" stroke-linecap="round" stroke-linejoin="round"/>
<path d="M16.34 20.1739L10.2987 14.1326C9.92335 13.7572 9.31567 13.7572 8.94127 14.1326L4.28815 18.7857" stroke="#9643FF" stroke-width="1.5" stroke-linecap="round" stroke-linejoin="round"/>
<path d="M9.87457 8.39927C10.0152 8.53986 10.0152 8.7678 9.87457 8.90839C9.73398 9.04898 9.50605 9.04898 9.36546 8.90839C9.22487 8.7678 9.22487 8.53986 9.36546 8.39927C9.50605 8.25868 9.73398 8.25868 9.87457 8.39927" stroke="#9643FF" stroke-width="1.5" stroke-linecap="round" stroke-linejoin="round"/>
</svg>
