<svg width="24" height="25" viewBox="0 0 24 25" fill="none" xmlns="http://www.w3.org/2000/svg">
<path d="M12.94 11.709L5.87 18.779" stroke="white" stroke-width="1.5" stroke-linecap="round" stroke-linejoin="round"/>
<path d="M6.63301 13.648L3.17001 12.83C2.78901 12.74 2.65501 12.267 2.93101 11.99L5.68501 9.23602C5.87001 9.05102 6.12101 8.94502 6.38401 8.94302L9.48901 8.91602" stroke="white" stroke-width="1.5" stroke-linecap="round" stroke-linejoin="round"/>
<path fill-rule="evenodd" clip-rule="evenodd" d="M19.879 9.62404L20.687 5.73604C20.907 4.67804 19.971 3.74204 18.913 3.96204L15.025 4.77004C13.88 5.00804 12.83 5.57504 12.004 6.40204L8.81401 9.59104C7.59701 10.808 6.80501 12.386 6.55501 14.089L6.54401 14.162C6.38601 15.249 6.75001 16.346 7.52601 17.123V17.123C8.30201 17.899 9.40001 18.263 10.487 18.104L10.56 18.093C12.263 17.844 13.841 17.051 15.058 15.834L18.247 12.645C19.074 11.819 19.641 10.769 19.879 9.62404V9.62404Z" stroke="white" stroke-width="1.5" stroke-linecap="round" stroke-linejoin="round"/>
<path d="M13.4 5.36328C15.711 6.93928 17.71 8.93828 19.286 11.2493" stroke="white" stroke-width="1.5" stroke-linecap="round" stroke-linejoin="round"/>
<path d="M11 18.0162L11.818 21.4792C11.908 21.8602 12.381 21.9942 12.658 21.7182L15.412 18.9642C15.597 18.7792 15.703 18.5282 15.705 18.2652L15.732 15.1602" stroke="white" stroke-width="1.5" stroke-linecap="round" stroke-linejoin="round"/>
</svg>
