<svg width="25" height="24" viewBox="0 0 25 24" fill="none" xmlns="http://www.w3.org/2000/svg">
<path d="M13.4401 11.0596L6.37012 18.1296" stroke="#9643FF" stroke-width="1.5" stroke-linecap="round" stroke-linejoin="round"/>
<path d="M7.13295 12.9986L3.66995 12.1806C3.28895 12.0906 3.15495 11.6176 3.43095 11.3406L6.18495 8.5866C6.36995 8.4016 6.62095 8.2956 6.88395 8.2936L9.98895 8.2666" stroke="#9643FF" stroke-width="1.5" stroke-linecap="round" stroke-linejoin="round"/>
<path fill-rule="evenodd" clip-rule="evenodd" d="M20.3791 8.97463L21.1871 5.08663C21.4071 4.02863 20.4711 3.09263 19.4131 3.31263L15.5251 4.12063C14.3801 4.35863 13.3301 4.92563 12.5041 5.75263L9.31407 8.94163C8.09707 10.1586 7.30507 11.7366 7.05507 13.4396L7.04407 13.5126C6.88607 14.5996 7.25007 15.6966 8.02607 16.4736V16.4736C8.80207 17.2496 9.90007 17.6136 10.9871 17.4546L11.0601 17.4436C12.7631 17.1946 14.3411 16.4016 15.5581 15.1846L18.7471 11.9956C19.5741 11.1696 20.1411 10.1196 20.3791 8.97463V8.97463Z" stroke="#9643FF" stroke-width="1.5" stroke-linecap="round" stroke-linejoin="round"/>
<path d="M13.8999 4.71387C16.2109 6.28987 18.2099 8.28887 19.7859 10.5999" stroke="#9643FF" stroke-width="1.5" stroke-linecap="round" stroke-linejoin="round"/>
<path d="M11.5 17.3667L12.318 20.8297C12.408 21.2107 12.881 21.3447 13.158 21.0687L15.912 18.3147C16.097 18.1297 16.203 17.8787 16.205 17.6157L16.232 14.5107" stroke="#9643FF" stroke-width="1.5" stroke-linecap="round" stroke-linejoin="round"/>
</svg>
