<svg width="24" height="24" viewBox="0 0 24 24" fill="none" xmlns="http://www.w3.org/2000/svg">
<path fill-rule="evenodd" clip-rule="evenodd" d="M21.064 19.784L18.409 7.784C18.308 7.326 17.902 7 17.433 7H6.567C6.098 7 5.692 7.326 5.591 7.784L2.936 19.784C2.798 20.408 3.273 21 3.912 21H20.088C20.727 21 21.202 20.408 21.064 19.784V19.784Z" stroke="white" stroke-width="1.5" stroke-linecap="round" stroke-linejoin="round"/>
<path d="M14.5 7V4.5V4.5V4.5C14.5 3.119 13.381 2 12 2H11.999C10.618 2 9.49901 3.119 9.49901 4.5V4.5V4.5V7" stroke="white" stroke-width="1.5" stroke-linecap="round" stroke-linejoin="round"/>
<path d="M18.16 7.34003L15.14 21" stroke="white" stroke-width="1.5" stroke-linecap="round" stroke-linejoin="round"/>
</svg>
