<svg width="52" height="52" viewBox="0 0 52 52" fill="none" xmlns="http://www.w3.org/2000/svg">
<g filter="url(#filter0_d_2368_15022)">
<rect x="2" y="1" width="48" height="48" rx="10" fill="white"/>
<rect x="2.5" y="1.5" width="47" height="47" rx="9.5" stroke="#EAECF0"/>
<path d="M34 34C34 32.6044 34 31.9067 33.8278 31.3389C33.44 30.0605 32.4395 29.06 31.1611 28.6722C30.5933 28.5 29.8956 28.5 28.5 28.5H23.5C22.1044 28.5 21.4067 28.5 20.8389 28.6722C19.5605 29.06 18.56 30.0605 18.1722 31.3389C18 31.9067 18 32.6044 18 34M30.5 20.5C30.5 22.9853 28.4853 25 26 25C23.5147 25 21.5 22.9853 21.5 20.5C21.5 18.0147 23.5147 16 26 16C28.4853 16 30.5 18.0147 30.5 20.5Z" stroke="#1B1D1C" stroke-width="2" stroke-linecap="round" stroke-linejoin="round"/>
</g>
<defs>
<filter id="filter0_d_2368_15022" x="0" y="0" width="52" height="52" filterUnits="userSpaceOnUse" color-interpolation-filters="sRGB">
<feFlood flood-opacity="0" result="BackgroundImageFix"/>
<feColorMatrix in="SourceAlpha" type="matrix" values="0 0 0 0 0 0 0 0 0 0 0 0 0 0 0 0 0 0 127 0" result="hardAlpha"/>
<feOffset dy="1"/>
<feGaussianBlur stdDeviation="1"/>
<feColorMatrix type="matrix" values="0 0 0 0 0.0627451 0 0 0 0 0.0941176 0 0 0 0 0.156863 0 0 0 0.05 0"/>
<feBlend mode="normal" in2="BackgroundImageFix" result="effect1_dropShadow_2368_15022"/>
<feBlend mode="normal" in="SourceGraphic" in2="effect1_dropShadow_2368_15022" result="shape"/>
</filter>
</defs>
</svg>
