<svg width="24" height="25" viewBox="0 0 24 25" fill="none" xmlns="http://www.w3.org/2000/svg">
<path fill-rule="evenodd" clip-rule="evenodd" d="M6 19.3337C7.569 17.8087 9.692 16.8707 12.023 16.8707C14.331 16.8707 16.431 17.7897 18 19.2867C16.431 20.8117 14.308 21.7497 11.977 21.7497C9.669 21.7497 7.569 20.8307 6 19.3337Z" stroke="white" stroke-width="1.5" stroke-linecap="round" stroke-linejoin="round"/>
<path d="M3.975 16.7748C3.365 15.5608 3 14.2018 3 12.7498C3 7.77576 7.026 3.74976 12 3.74976C16.974 3.74976 21 7.77576 21 12.7498C21 14.1998 20.637 15.5598 20.023 16.7728" stroke="white" stroke-width="1.5" stroke-linecap="round" stroke-linejoin="round"/>
<path d="M14.1213 8.62843C15.2929 9.8 15.2929 11.6995 14.1213 12.8711C12.9497 14.0426 11.0502 14.0426 9.87868 12.8711C8.70711 11.6995 8.70711 9.8 9.87868 8.62843C11.0502 7.45686 12.9497 7.45686 14.1213 8.62843" stroke="white" stroke-width="1.5" stroke-linecap="round" stroke-linejoin="round"/>
</svg>
