<svg width="50" height="50" viewBox="0 0 50 50" fill="none" xmlns="http://www.w3.org/2000/svg">
<path d="M31.6185 40.3929C33.2954 40.3929 34.8296 39.9269 36.1855 39.1027C36.8991 37.8483 37.2916 36.3789 37.2916 34.8019C37.2916 29.9994 33.4024 26.0929 28.6212 26.0929H23.8402V21.4337C23.8402 16.6311 19.9509 12.7246 15.1698 12.7246C13.5641 12.7246 12.0299 13.1547 10.7454 13.9432C10.0318 15.2334 9.60364 16.7028 9.60364 18.2798V31.2537C9.60364 36.0563 13.8496 40.3929 18.6308 40.3929H31.6185Z" fill="#FA3296"/>
<path d="M31.619 40.3924H18.6313C13.8502 40.3924 9.6042 36.0558 9.6042 31.2533V18.2792C9.6042 16.7023 10.0324 15.2329 10.746 13.9426C8.21266 15.4479 6.5 18.2434 6.5 21.4331V33.762C6.5 38.5645 11.3169 43.5462 16.098 43.5462H28.6218C31.8687 43.5462 34.6875 41.7542 36.1861 39.1021C34.8303 39.9265 33.2603 40.3924 31.619 40.3924Z" fill="#503296"/>
<path d="M34.8307 37.2401H21.0223C16.2412 37.2401 12.7088 34.1221 12.7088 28.5311V15.1271C12.7088 13.5142 13.137 12.009 13.922 10.7188C11.3173 12.224 9.56897 15.0553 9.56897 18.2809V31.2549C9.56897 36.0575 13.8149 40.3941 18.5961 40.3941H31.5837C34.795 40.3941 37.6138 38.6737 39.148 36.0933C37.8992 36.8102 36.4363 37.2401 34.8307 37.2401Z" fill="#C83296"/>
<path d="M40.3959 31.2893C40.1818 26.6302 36.3997 22.9387 31.7256 22.9387H26.9444V18.3871C26.9444 13.4053 22.8412 9.35541 17.8816 9.57044C14.813 9.7138 12.1727 11.4341 10.7455 13.9428C12.03 13.1544 13.5642 12.7244 15.1699 12.7244C19.951 12.7244 23.8402 16.6309 23.8402 21.4334V26.0926H28.6214C33.4026 26.0926 37.2917 29.9992 37.2917 34.8017C37.2917 36.3428 36.8992 37.8122 36.1855 39.1023C38.7903 37.5254 40.5029 34.5866 40.3959 31.2893Z" fill="#FA78B4"/>
<path d="M34.8296 19.8214H30.0484V15.1622C30.0484 10.3597 26.1593 6.45312 21.3781 6.45312C18.2026 6.45312 15.4195 8.17344 13.8853 10.7539C15.0627 10.0729 16.4186 9.64286 17.8458 9.57118C22.8054 9.35614 26.9086 13.406 26.9086 18.3878V22.9394H31.6898C36.3639 22.9394 40.146 26.6309 40.3601 31.29C40.4315 33.0462 39.9676 34.6948 39.147 36.0926C41.7516 34.5873 43.5 31.7559 43.5 28.5305C43.5 23.6921 39.6465 19.8214 34.8296 19.8214Z" fill="#FAA0C8"/>
<path d="M12.9933 12.9767C13.2074 12.1523 13.5286 11.3997 13.921 10.7188C12.6009 11.4714 11.4948 12.5824 10.7455 13.9443C11.4234 13.5142 12.1727 13.1917 12.9933 12.9767Z" fill="#FAA0C8"/>
<path d="M37.0069 36.9532C36.8284 37.7058 36.5073 38.4226 36.1505 39.1035C37.3994 38.3508 38.434 37.3115 39.1478 36.093C38.5054 36.4873 37.7918 36.7739 37.0069 36.9532Z" fill="#FAA0C8"/>
</svg>
